<?xml version="1.0" encoding="UTF-8" standalone="no"?>
<!-- Created with Inkscape (http://www.inkscape.org/) -->

<svg
   xmlns:dc="http://purl.org/dc/elements/1.1/"
   xmlns:cc="http://creativecommons.org/ns#"
   xmlns:rdf="http://www.w3.org/1999/02/22-rdf-syntax-ns#"
   xmlns:svg="http://www.w3.org/2000/svg"
   xmlns="http://www.w3.org/2000/svg"
   xmlns:sodipodi="http://sodipodi.sourceforge.net/DTD/sodipodi-0.dtd"
   xmlns:inkscape="http://www.inkscape.org/namespaces/inkscape"
   width="549.84949mm"
   height="359.42722mm"
   viewBox="0 0 1948.2856 1273.561"
   id="svg4960"
   version="1.1"
   inkscape:version="0.91 r13725"
   sodipodi:docname="sheets.svg">
  <defs
     id="defs4962">
    <marker
       inkscape:stockid="Arrow1Lstart"
       orient="auto"
       refY="0"
       refX="0"
       id="Arrow1Lstart"
       style="overflow:visible"
       inkscape:isstock="true">
      <path
         id="path5908"
         d="M 0,0 5,-5 -12.5,0 5,5 0,0 Z"
         style="fill:#f0eef2;fill-opacity:1;fill-rule:evenodd;stroke:#f0eef2;stroke-width:1pt;stroke-opacity:1"
         transform="matrix(0.8,0,0,0.8,10,0)"
         inkscape:connector-curvature="0" />
    </marker>
    <marker
       inkscape:stockid="Arrow1Lstart"
       orient="auto"
       refY="0"
       refX="0"
       id="Arrow1Lstart-6"
       style="overflow:visible"
       inkscape:isstock="true">
      <path
         inkscape:connector-curvature="0"
         id="path5908-1"
         d="M 0,0 5,-5 -12.5,0 5,5 0,0 Z"
         style="fill:#f0eef2;fill-opacity:1;fill-rule:evenodd;stroke:#f0eef2;stroke-width:1pt;stroke-opacity:1"
         transform="matrix(0.8,0,0,0.8,10,0)" />
    </marker>
    <marker
       inkscape:stockid="Arrow1Lstart"
       orient="auto"
       refY="0"
       refX="0"
       id="Arrow1Lstart-9"
       style="overflow:visible"
       inkscape:isstock="true">
      <path
         inkscape:connector-curvature="0"
         id="path5908-3"
         d="M 0,0 5,-5 -12.5,0 5,5 0,0 Z"
         style="fill:#f0eef2;fill-opacity:1;fill-rule:evenodd;stroke:#f0eef2;stroke-width:1pt;stroke-opacity:1"
         transform="matrix(0.8,0,0,0.8,10,0)" />
    </marker>
    <marker
       inkscape:stockid="Arrow1Lstart"
       orient="auto"
       refY="0"
       refX="0"
       id="Arrow1Lstart-94"
       style="overflow:visible"
       inkscape:isstock="true">
      <path
         inkscape:connector-curvature="0"
         id="path5908-7"
         d="M 0,0 5,-5 -12.5,0 5,5 0,0 Z"
         style="fill:#f0eef2;fill-opacity:1;fill-rule:evenodd;stroke:#f0eef2;stroke-width:1pt;stroke-opacity:1"
         transform="matrix(0.8,0,0,0.8,10,0)" />
    </marker>
  </defs>
  <sodipodi:namedview
     id="base"
     pagecolor="#ffffff"
     bordercolor="#666666"
     borderopacity="1.0"
     inkscape:pageopacity="0.0"
     inkscape:pageshadow="2"
     inkscape:zoom="0.49497475"
     inkscape:cx="511.50751"
     inkscape:cy="42.632462"
     inkscape:document-units="px"
     inkscape:current-layer="layer1"
     showgrid="false"
     inkscape:window-width="1969"
     inkscape:window-height="1438"
     inkscape:window-x="1920"
     inkscape:window-y="0"
     inkscape:window-maximized="0"
     fit-margin-top="0"
     fit-margin-left="0"
     fit-margin-right="0"
     fit-margin-bottom="0" />
  <metadata
     id="metadata4965">
    <rdf:RDF>
      <cc:Work
         rdf:about="">
        <dc:format>image/svg+xml</dc:format>
        <dc:type
           rdf:resource="http://purl.org/dc/dcmitype/StillImage" />
        <dc:title></dc:title>
      </cc:Work>
    </rdf:RDF>
  </metadata>
  <g
     inkscape:label="Layer 1"
     inkscape:groupmode="layer"
     id="layer1"
     transform="translate(-76.48011,-193.07649)">
    <path
       style="fill:#b1a077;stroke:none"
       inkscape:connector-curvature="0"
       id="path284"
       d="m 274.71429,371.32649 1.75,1.75 -1.75,1.7 0,4.95 2.8,2.8 -2.8,2.8 0,10.7 q 0,3.05 3.05,3.05 l 8.8,0 2.2,-2.2 2.2,2.2 72.65,0 q 3.1,0 3.1,-3.05 l 0,-5.7 -4.1,-4.1 4.1,-4.15 0,-55.15 -3.1,-3.1 3.1,-3.15 0,-10.55 q 0,-3.05 -3.1,-3.05 l -38.55,0 -2.85,2.9 -2.9,-2.9 -41.55,0 q -3.05,0 -3.05,3.05 l 0,61.2 m -2,24.7 0,-85.9 q 0,-5.05 5.05,-5.05 l 85.85,0 q 5.1,0 5.1,5.05 l 0,85.9 q 0,5.05 -5.1,5.05 l -85.85,0 q -5.05,0 -5.05,-5.05" />
    <path
       style="fill:#d3bf8f;stroke:none"
       inkscape:connector-curvature="0"
       id="path286"
       d="m 274.71429,371.32649 0,-61.2 q 0,-3.05 3.05,-3.05 l 41.55,0 2.9,2.9 2.85,-2.9 38.55,0 q 3.1,0 3.1,3.05 l 0,10.55 -3.1,3.15 3.1,3.1 0,55.15 -4.1,4.15 4.1,4.1 0,5.7 q 0,3.05 -3.1,3.05 l -72.65,0 -2.2,-2.2 -2.2,2.2 -8.8,0 q -3.05,0 -3.05,-3.05 l 0,-10.7 2.8,-2.8 -2.8,-2.8 0,-4.95 1.75,-1.7 -1.75,-1.75" />
    <path
       style="fill:#d9cdaf;stroke:none"
       inkscape:connector-curvature="0"
       id="path288"
       d="m 272.71429,396.02649 q 0,5.05 5.05,5.05 l 85.85,0 q 5.1,0 5.1,-5.05 l 0,-85.9 q 0,-5.05 -5.1,-5.05 l -85.85,0 q -5.05,0 -5.05,5.05 l 0,85.9 m -2,0 0,-85.9 q 0,-7.05 7.05,-7.05 l 85.85,0 q 3.55,0 5.25,1.85 1.85,1.7 1.85,5.2 l 0,85.9 q 0,3.5 -1.85,5.2 -1.7,1.85 -5.25,1.85 l -85.85,0 q -7.05,0 -7.05,-7.05" />
    <path
       style="fill:#b7916a;stroke:none"
       inkscape:connector-curvature="0"
       id="path290"
       d="m 215.06429,307.07649 -2.85,2.9 -2.9,-2.9 -41.55,0 q -3.05,0 -3.05,3.05 l 0,61.2 1.75,1.75 -1.75,1.7 0,4.95 2.8,2.8 -2.8,2.8 0,10.7 q 0,3.05 3.05,3.05 l 8.8,0 2.2,-2.2 2.2,2.2 72.65,0 q 3.1,0 3.1,-3.05 l 0,-5.7 -4.1,-4.1 4.1,-4.15 0,-55.15 -3.1,-3.1 3.1,-3.15 0,-10.55 q 0,-3.05 -3.1,-3.05 l -38.55,0 m -52.35,88.95 0,-85.9 q 0,-5.05 5.05,-5.05 l 85.85,0 q 5.1,0 5.1,5.05 l 0,85.9 q 0,5.05 -5.1,5.05 l -85.85,0 q -5.05,0 -5.05,-5.05" />
    <path
       style="fill:#97714a;stroke:none"
       inkscape:connector-curvature="0"
       id="path292"
       d="m 215.06429,307.07649 38.55,0 q 3.1,0 3.1,3.05 l 0,10.55 -3.1,3.15 3.1,3.1 0,55.15 -4.1,4.15 4.1,4.1 0,5.7 q 0,3.05 -3.1,3.05 l -72.65,0 -2.2,-2.2 -2.2,2.2 -8.8,0 q -3.05,0 -3.05,-3.05 l 0,-10.7 2.8,-2.8 -2.8,-2.8 0,-4.95 1.75,-1.7 -1.75,-1.75 0,-61.2 q 0,-3.05 3.05,-3.05 l 41.55,0 2.9,2.9 2.85,-2.9" />
    <path
       style="fill:#886644;stroke:none"
       inkscape:connector-curvature="0"
       id="path294"
       d="m 258.86429,304.92649 q 1.85,1.7 1.85,5.2 l 0,85.9 q 0,3.5 -1.85,5.2 -1.7,1.85 -5.25,1.85 l -85.85,0 q -7.05,0 -7.05,-7.05 l 0,-85.9 q 0,-7.05 7.05,-7.05 l 85.85,0 q 3.55,0 5.25,1.85 m -96.15,91.1 q 0,5.05 5.05,5.05 l 85.85,0 q 5.1,0 5.1,-5.05 l 0,-85.9 q 0,-5.05 -5.1,-5.05 l -85.85,0 q -5.05,0 -5.05,5.05 l 0,85.9" />
    <path
       style="fill:#9b9dad;stroke:none"
       inkscape:connector-curvature="0"
       id="path296"
       d="m 322.21429,199.97649 -2.9,-2.9 -41.55,0 q -3.05,0 -3.05,3.05 l 0,61.2 1.75,1.75 -1.75,1.7 0,4.95 2.8,2.8 -2.8,2.8 0,10.7 q 0,3.05 3.05,3.05 l 8.8,0 2.2,-2.2 2.2,2.2 72.65,0 q 3.1,0 3.1,-3.05 l 0,-5.7 -4.1,-4.1 4.1,-4.15 0,-55.15 -3.1,-3.1 3.1,-3.15 0,-10.55 q 0,-3.05 -3.1,-3.05 l -38.55,0 -2.85,2.9 m 46.5,0.15 0,85.9 q 0,5.05 -5.1,5.05 l -85.85,0 q -5.05,0 -5.05,-5.05 l 0,-85.9 q 0,-5.05 5.05,-5.05 l 85.85,0 q 5.1,0 5.1,5.05" />
    <path
       style="fill:#838796;stroke:none"
       inkscape:connector-curvature="0"
       id="path298"
       d="m 322.21429,199.97649 2.85,-2.9 38.55,0 q 3.1,0 3.1,3.05 l 0,10.55 -3.1,3.15 3.1,3.1 0,55.15 -4.1,4.15 4.1,4.1 0,5.7 q 0,3.05 -3.1,3.05 l -72.65,0 -2.2,-2.2 -2.2,2.2 -8.8,0 q -3.05,0 -3.05,-3.05 l 0,-10.7 2.8,-2.8 -2.8,-2.8 0,-4.95 1.75,-1.7 -1.75,-1.75 0,-61.2 q 0,-3.05 3.05,-3.05 l 41.55,0 2.9,2.9" />
    <path
       style="fill:#616374;stroke:none"
       inkscape:connector-curvature="0"
       id="path300"
       d="m 370.71429,200.12649 0,85.9 q 0,3.5 -1.85,5.2 -1.7,1.85 -5.25,1.85 l -85.85,0 q -7.05,0 -7.05,-7.05 l 0,-85.9 q 0,-7.05 7.05,-7.05 l 85.85,0 q 3.55,0 5.25,1.85 1.85,1.7 1.85,5.2 m -2,0 q 0,-5.05 -5.1,-5.05 l -85.85,0 q -5.05,0 -5.05,5.05 l 0,85.9 q 0,5.05 5.05,5.05 l 85.85,0 q 5.1,0 5.1,-5.05 l 0,-85.9" />
    <path
       style="fill:#faf2e1;stroke:none"
       inkscape:connector-curvature="0"
       id="path302"
       d="m 167.76429,195.07649 85.85,0 q 5.1,0 5.1,5.05 l 0,85.9 q 0,5.05 -5.1,5.05 l -85.85,0 q -5.05,0 -5.05,-5.05 l 0,-85.9 q 0,-5.05 5.05,-5.05 m 0,2 q -3.05,0 -3.05,3.05 l 0,61.2 1.75,1.75 -1.75,1.7 0,4.95 2.8,2.8 -2.8,2.8 0,10.7 q 0,3.05 3.05,3.05 l 8.8,0 2.2,-2.2 2.2,2.2 72.65,0 q 3.1,0 3.1,-3.05 l 0,-5.7 -4.1,-4.1 4.1,-4.15 0,-55.15 -3.1,-3.1 3.1,-3.15 0,-10.55 q 0,-3.05 -3.1,-3.05 l -38.55,0 -2.85,2.9 -2.9,-2.9 -41.55,0" />
    <path
       style="fill:#ece3ce;stroke:none"
       inkscape:connector-curvature="0"
       id="path304"
       d="m 167.76429,197.07649 41.55,0 2.9,2.9 2.85,-2.9 38.55,0 q 3.1,0 3.1,3.05 l 0,10.55 -3.1,3.15 3.1,3.1 0,55.15 -4.1,4.15 4.1,4.1 0,5.7 q 0,3.05 -3.1,3.05 l -72.65,0 -2.2,-2.2 -2.2,2.2 -8.8,0 q -3.05,0 -3.05,-3.05 l 0,-10.7 2.8,-2.8 -2.8,-2.8 0,-4.95 1.75,-1.7 -1.75,-1.75 0,-61.2 q 0,-3.05 3.05,-3.05" />
    <path
       style="fill:#d3bf8f;stroke:none"
       inkscape:connector-curvature="0"
       id="path306"
       d="m 167.76429,193.07649 85.85,0 q 3.55,0 5.25,1.85 1.85,1.7 1.85,5.2 l 0,85.9 q 0,3.5 -1.85,5.2 -1.7,1.85 -5.25,1.85 l -85.85,0 q -7.05,0 -7.05,-7.05 l 0,-85.9 q 0,-7.05 7.05,-7.05 m 0,2 q -5.05,0 -5.05,5.05 l 0,85.9 q 0,5.05 5.05,5.05 l 85.85,0 q 5.1,0 5.1,-5.05 l 0,-85.9 q 0,-5.05 -5.1,-5.05 l -85.85,0" />
    <path
       style="fill:#000000;fill-opacity:0.10196078;stroke:none"
       inkscape:connector-curvature="0"
       id="path308"
       d="m 256.71429,530.02649 q -0.05,-2.95 -3.1,-2.95 l -38.55,0 -2.85,2.9 -2.9,-2.9 -41.55,0 q -3,0 -3.05,2.95 l 0,-1.9 q 0,-3.05 3.05,-3.05 l 41.55,0 2.9,2.9 2.85,-2.9 38.55,0 q 3.1,0 3.1,3.05 l 0,1.9 m -91.25,62.05 1,1 -1.75,1.7 0,-2 0.75,-0.7 m 1.05,9.45 1,1 -2.8,2.8 0,-2 1.8,-1.8 m 90.2,8.8 -4.1,-4.1 1,-1 3.1,3.1 0,2 m 0,-63.4 -3.1,-3.1 1,-1 2.1,2.1 0,2" />
    <path
       style="fill:#97714a;stroke:none"
       inkscape:connector-curvature="0"
       id="path310"
       d="m 256.71429,546.92649 0,55.15 -3.1,3.15 -1,1 4.1,4.1 0,5.7 q 0,3.05 -3.1,3.05 l -72.65,0 -2.2,-2.2 -2.2,2.2 -8.8,0 q -3.05,0 -3.05,-3.05 l 0,-10.7 2.8,-2.8 -1,-1 -1.8,-1.8 0,-4.95 1.75,-1.7 -1,-1 -0.75,-0.75 0,-61.3 q 0.05,-2.95 3.05,-2.95 l 41.55,0 2.9,2.9 2.85,-2.9 38.55,0 q 3.05,0 3.1,2.95 l 0,10.65 -2.1,2.15 -1,1 3.1,3.1" />
    <path
       style="fill:#000000;fill-opacity:0.10196078;stroke:none"
       inkscape:connector-curvature="0"
       id="path312"
       d="m 366.71429,530.02649 q -0.05,-2.95 -3.1,-2.95 l -38.55,0 -2.85,2.9 -2.9,-2.9 -41.55,0 q -3,0 -3.05,2.95 l 0,-1.9 q 0,-3.05 3.05,-3.05 l 41.55,0 2.9,2.9 2.85,-2.9 38.55,0 q 3.1,0 3.1,3.05 l 0,1.9 m -91.25,62.05 1,1 -1.75,1.7 0,-2 0.75,-0.7 m 1.05,9.45 1,1 -2.8,2.8 0,-2 1.8,-1.8 m 90.2,8.8 -4.1,-4.1 1,-1 3.1,3.1 0,2 m 0,-63.4 -3.1,-3.1 1,-1 2.1,2.1 0,2" />
    <path
       style="fill:#d3bf8f;stroke:none"
       inkscape:connector-curvature="0"
       id="path314"
       d="m 366.71429,546.92649 0,55.15 -3.1,3.15 -1,1 4.1,4.1 0,5.7 q 0,3.05 -3.1,3.05 l -72.65,0 -2.2,-2.2 -2.2,2.2 -8.8,0 q -3.05,0 -3.05,-3.05 l 0,-10.7 2.8,-2.8 -1,-1 -1.8,-1.8 0,-4.95 1.75,-1.7 -1,-1 -0.75,-0.75 0,-61.3 q 0.05,-2.95 3.05,-2.95 l 41.55,0 2.9,2.9 2.85,-2.9 38.55,0 q 3.05,0 3.1,2.95 l 0,10.65 -2.1,2.15 -1,1 3.1,3.1" />
    <path
       style="fill:#000000;fill-opacity:0.10196078;stroke:none"
       inkscape:connector-curvature="0"
       id="path316"
       d="m 274.71429,420.02649 0,-1.9 q 0,-3.05 3.05,-3.05 l 41.55,0 2.9,2.9 2.85,-2.9 38.55,0 q 3.1,0 3.1,3.05 l 0,1.9 q -0.05,-2.95 -3.1,-2.95 l -38.55,0 -2.85,2.9 -2.9,-2.9 -41.55,0 q -3,0 -3.05,2.95 m 89.9,12.8 2.1,2.1 0,2 -3.1,-3.1 1,-1 m -1,62.4 3.1,3.1 0,2 -4.1,-4.1 1,-1 m -88.9,0.1 0,-2 1.8,-1.8 1,1 -2.8,2.8 m 0,-10.55 0,-2 0.75,-0.7 1,1 -1.75,1.7" />
    <path
       style="fill:#838796;stroke:none"
       inkscape:connector-curvature="0"
       id="path318"
       d="m 274.71429,484.77649 1.75,-1.7 -1,-1 -0.75,-0.75 0,-61.3 q 0.05,-2.95 3.05,-2.95 l 41.55,0 2.9,2.9 2.85,-2.9 38.55,0 q 3.05,0 3.1,2.95 l 0,10.65 -2.1,2.15 -1,1 3.1,3.1 0,55.15 -3.1,3.15 -1,1 4.1,4.1 0,5.7 q 0,3.05 -3.1,3.05 l -72.65,0 -2.2,-2.2 -2.2,2.2 -8.8,0 q -3.05,0 -3.05,-3.05 l 0,-10.7 2.8,-2.8 -1,-1 -1.8,-1.8 0,-4.95" />
    <path
       style="fill:#000000;fill-opacity:0.10196078;stroke:none"
       inkscape:connector-curvature="0"
       id="path320"
       d="m 164.71429,420.02649 0,-1.9 q 0,-3.05 3.05,-3.05 l 41.55,0 2.9,2.9 2.85,-2.9 38.55,0 q 3.1,0 3.1,3.05 l 0,1.9 q -0.05,-2.95 -3.1,-2.95 l -38.55,0 -2.85,2.9 -2.9,-2.9 -41.55,0 q -3,0 -3.05,2.95 m 89.9,12.8 2.1,2.1 0,2 -3.1,-3.1 1,-1 m -1,62.4 3.1,3.1 0,2 -4.1,-4.1 1,-1 m -88.9,0.1 0,-2 1.8,-1.8 1,1 -2.8,2.8 m 0,-10.55 0,-2 0.75,-0.7 1,1 -1.75,1.7" />
    <path
       style="fill:#ece3ce;stroke:none"
       inkscape:connector-curvature="0"
       id="path322"
       d="m 164.71429,484.77649 1.75,-1.7 -1,-1 -0.75,-0.75 0,-61.3 q 0.05,-2.95 3.05,-2.95 l 41.55,0 2.9,2.9 2.85,-2.9 38.55,0 q 3.05,0 3.1,2.95 l 0,10.65 -2.1,2.15 -1,1 3.1,3.1 0,55.15 -3.1,3.15 -1,1 4.1,4.1 0,5.7 q 0,3.05 -3.1,3.05 l -72.65,0 -2.2,-2.2 -2.2,2.2 -8.8,0 q -3.05,0 -3.05,-3.05 l 0,-10.7 2.8,-2.8 -1,-1 -1.8,-1.8 0,-4.95" />
    <path
       style="fill:#838796;stroke:none"
       inkscape:connector-curvature="0"
       id="path204"
       d="m 619.92859,214.64078 -0.05,-0.05 0.05,0.7 0,5.3 -2.4,2.4 2.4,2.4 0,22.9 q 0,2 -2,2 l -33,0 q -2,0 -2,-2 l 0,-3.6 2.75,-2.75 -2.75,-2.75 0,-23.9 0.05,-0.5 0.05,-0.2 q 0.25,-1.3 1.9,-1.3 l 33,0 q 1.65,0 2,1.35" />
    <path
       style="fill:#727685;stroke:none"
       inkscape:connector-curvature="0"
       id="path206"
       d="m 619.92859,214.64078 q -0.35,-1.35 -2,-1.35 l -33,0 q -1.65,0 -1.9,1.3 l -0.05,0.2 -0.05,0.5 0,23.9 2.75,2.75 -2.75,2.75 0,3.6 q 0,2 2,2 l 33,0 q 2,0 2,-2 l 0,-22.9 -2.4,-2.4 2.4,-2.4 0,-5.3 -0.05,-0.7 0.05,0.05 m 1.95,-0.3 0.05,0.95 0,33 q 0,4 -4,4 l -33,0 q -4,0 -4,-4 l 0,-33 0.1,-0.95 q 0.4,-3.05 3.9,-3.05 l 33,0 q 3.5,0 3.95,3.05" />
    <path
       style="fill:#9b9dad;stroke:none"
       inkscape:connector-curvature="0"
       id="path208"
       d="m 621.87859,214.34078 q -0.45,-3.05 -3.95,-3.05 l -33,0 q -3.5,0 -3.9,3.05 l -0.1,0.95 0,33 q 0,4 4,4 l 33,0 q 4,0 4,-4 l 0,-33 -0.05,-0.95 m -42.95,34.2 0,-33.25 q 0,-6 6,-6 l 33,0 q 6,0 6,6 l 0,33.25 q -0.15,5.75 -6,5.75 l -33,0 q -5.85,0 -6,-5.75" />
    <path
       style="fill:#616374;stroke:none"
       inkscape:connector-curvature="0"
       id="path210"
       d="m 578.92859,248.54078 q 0.15,5.75 6,5.75 l 33,0 q 5.85,0 6,-5.75 l 0,3.75 q 0,6 -6,6 l -33,0 q -6,0 -6,-6 l 0,-3.75" />
    <path
       style="fill:#97714a;stroke:none"
       inkscape:connector-curvature="0"
       id="path212"
       d="m 582.97859,274.79078 0.05,-0.2 q 0.25,-1.3 1.9,-1.3 l 33,0 q 1.65,0 2,1.35 l -0.05,-0.05 0.05,0.7 0,5.3 -2.4,2.4 2.4,2.4 0,22.9 q 0,2 -2,2 l -33,0 q -2,0 -2,-2 l 0,-3.6 2.75,-2.75 -2.75,-2.75 0,-23.9 0.05,-0.5" />
    <path
       style="fill:#b7916a;stroke:none"
       inkscape:connector-curvature="0"
       id="path214"
       d="m 582.97859,274.79078 -0.05,0.5 0,23.9 2.75,2.75 -2.75,2.75 0,3.6 q 0,2 2,2 l 33,0 q 2,0 2,-2 l 0,-22.9 -2.4,-2.4 2.4,-2.4 0,-5.3 -0.05,-0.7 0.05,0.05 q -0.35,-1.35 -2,-1.35 l -33,0 q -1.65,0 -1.9,1.3 l -0.05,0.2 m -2.05,0.5 0.1,-0.95 q 0.4,-3.05 3.9,-3.05 l 33,0 q 3.5,0 3.95,3.05 l 0.05,0.95 0,33 q 0,4 -4,4 l -33,0 q -4,0 -4,-4 l 0,-33" />
    <path
       style="fill:#886644;stroke:none"
       inkscape:connector-curvature="0"
       id="path216"
       d="m 580.92859,275.29078 0,33 q 0,4 4,4 l 33,0 q 4,0 4,-4 l 0,-33 -0.05,-0.95 q -0.45,-3.05 -3.95,-3.05 l -33,0 q -3.5,0 -3.9,3.05 l -0.1,0.95 m -2,33.25 0,-33.25 q 0,-6 6,-6 l 33,0 q 6,0 6,6 l 0,33.25 q -0.15,5.75 -6,5.75 l -33,0 q -5.85,0 -6,-5.75" />
    <path
       style="fill:#6d543a;stroke:none"
       inkscape:connector-curvature="0"
       id="path218"
       d="m 578.92859,308.54078 q 0.15,5.75 6,5.75 l 33,0 q 5.85,0 6,-5.75 l 0,3.75 q 0,6 -6,6 l -33,0 q -6,0 -6,-6 l 0,-3.75" />
    <path
       style="fill:#d9cdaf;stroke:none"
       inkscape:connector-curvature="0"
       id="path220"
       d="m 578.92859,368.54078 0,-33.25 q 0,-6 6,-6 l 33,0 q 6,0 6,6 l 0,33.25 q -0.15,5.75 -6,5.75 l -33,0 q -5.85,0 -6,-5.75 m 2.1,-34.2 -0.1,0.95 0,33 q 0,4 4,4 l 33,0 q 4,0 4,-4 l 0,-33 -0.05,-0.95 q -0.45,-3.05 -3.95,-3.05 l -33,0 q -3.5,0 -3.9,3.05" />
    <path
       style="fill:#b1a077;stroke:none"
       inkscape:connector-curvature="0"
       id="path222"
       d="m 581.02859,334.34078 q 0.4,-3.05 3.9,-3.05 l 33,0 q 3.5,0 3.95,3.05 l 0.05,0.95 0,33 q 0,4 -4,4 l -33,0 q -4,0 -4,-4 l 0,-33 0.1,-0.95 m 2,0.25 -0.05,0.2 -0.05,0.5 0,23.9 2.75,2.75 -2.75,2.75 0,3.6 q 0,2 2,2 l 33,0 q 2,0 2,-2 l 0,-22.9 -2.4,-2.4 2.4,-2.4 0,-5.3 -0.05,-0.7 0.05,0.05 q -0.35,-1.35 -2,-1.35 l -33,0 q -1.65,0 -1.9,1.3" />
    <path
       style="fill:#d3bf8f;stroke:none"
       inkscape:connector-curvature="0"
       id="path224"
       d="m 583.02859,334.59078 q 0.25,-1.3 1.9,-1.3 l 33,0 q 1.65,0 2,1.35 l -0.05,-0.05 0.05,0.7 0,5.3 -2.4,2.4 2.4,2.4 0,22.9 q 0,2 -2,2 l -33,0 q -2,0 -2,-2 l 0,-3.6 2.75,-2.75 -2.75,-2.75 0,-23.9 0.05,-0.5 0.05,-0.2" />
    <path
       style="fill:#a3997f;stroke:none"
       inkscape:connector-curvature="0"
       id="path226"
       d="m 623.92859,368.54078 0,3.75 q 0,6 -6,6 l -33,0 q -6,0 -6,-6 l 0,-3.75 q 0.15,5.75 6,5.75 l 33,0 q 5.85,0 6,-5.75" />
    <path
       style="fill:#e9e9e9;stroke:none"
       inkscape:connector-curvature="0"
       id="path228"
       d="m 578.92859,428.54078 0,-33.25 q 0,-6 6,-6 l 33,0 q 6,0 6,6 l 0,33.25 q -0.15,5.75 -6,5.75 l -33,0 q -5.85,0 -6,-5.75 m 42.95,-34.2 q -0.45,-3.05 -3.95,-3.05 l -33,0 q -3.5,0 -3.9,3.05 l -0.1,0.95 0,33 q 0,4 4,4 l 33,0 q 4,0 4,-4 l 0,-33 -0.05,-0.95" />
    <path
       style="fill:#e5e5e5;stroke:none"
       inkscape:connector-curvature="0"
       id="path230"
       d="m 619.92859,395.29078 0,5.3 -2.4,2.4 2.4,2.4 0,22.9 q 0,2 -2,2 l -33,0 q -2,0 -2,-2 l 0,-3.6 2.75,-2.75 -2.75,-2.75 0,-23.9 0.05,-0.5 0.05,-0.2 q 0.25,-1.3 1.9,-1.3 l 33,0 q 1.65,0 2,1.35 l -0.05,-0.05 0.05,0.7" />
    <path
       style="fill:#cbcbcb;stroke:none"
       inkscape:connector-curvature="0"
       id="path232"
       d="m 619.92859,395.29078 -0.05,-0.7 0.05,0.05 q -0.35,-1.35 -2,-1.35 l -33,0 q -1.65,0 -1.9,1.3 l -0.05,0.2 -0.05,0.5 0,23.9 2.75,2.75 -2.75,2.75 0,3.6 q 0,2 2,2 l 33,0 q 2,0 2,-2 l 0,-22.9 -2.4,-2.4 2.4,-2.4 0,-5.3 m 1.95,-0.95 0.05,0.95 0,33 q 0,4 -4,4 l -33,0 q -4,0 -4,-4 l 0,-33 0.1,-0.95 q 0.4,-3.05 3.9,-3.05 l 33,0 q 3.5,0 3.95,3.05" />
    <path
       style="fill:#c2c2c2;stroke:none"
       inkscape:connector-curvature="0"
       id="path234"
       d="m 623.92859,428.54078 0,3.75 q 0,6 -6,6 l -33,0 q -6,0 -6,-6 l 0,-3.75 q 0.15,5.75 6,5.75 l 33,0 q 5.85,0 6,-5.75" />
    <path
       style="fill:#838796;stroke:none"
       inkscape:connector-curvature="0"
       id="path260"
       d="m 679.92859,218.64078 -0.05,-0.05 0.05,0.7 0,5.3 -2.4,2.4 2.4,2.4 0,22.9 q 0,1.95 -1.85,2 l -33.25,0 q -1.9,-0.05 -1.9,-2 l 0,-3.6 2.75,-2.75 -2.75,-2.75 0,-23.9 0.05,-0.5 0.05,-0.2 q 0.25,-1.3 1.9,-1.3 l 33,0 q 1.65,0 2,1.35" />
    <path
       style="fill:#727685;stroke:none"
       inkscape:connector-curvature="0"
       id="path262"
       d="m 679.92859,218.64078 q -0.35,-1.35 -2,-1.35 l -33,0 q -1.65,0 -1.9,1.3 l -0.05,0.2 -0.05,0.5 0,23.9 2.75,2.75 -2.75,2.75 0,3.6 q 0,1.95 1.9,2 l 33.25,0 q 1.85,-0.05 1.85,-2 l 0,-22.9 -2.4,-2.4 2.4,-2.4 0,-5.3 -0.05,-0.7 0.05,0.05 m -2,-3.35 q 3.5,0 3.95,3.05 l 0.05,0.95 0,33 -0.05,1 q -0.45,3 -3.95,3 l -33,0 q -3.5,0 -3.9,-3 l -0.1,-1 0,-33 0.1,-0.95 q 0.4,-3.05 3.9,-3.05 l 33,0" />
    <path
       style="fill:#9b9dad;stroke:none"
       inkscape:connector-curvature="0"
       id="path264"
       d="m 677.92859,215.29078 -33,0 q -3.5,0 -3.9,3.05 l -0.1,0.95 0,33 0.1,1 q 0.4,3 3.9,3 l 33,0 q 3.5,0 3.95,-3 l 0.05,-1 0,-33 -0.05,-0.95 q -0.45,-3.05 -3.95,-3.05 m 6,4 0,33 0,0.25 q -0.15,5.75 -6,5.75 l -33,0 -0.25,0 -0.15,0 -0.2,0 -0.1,0 -0.1,0 -0.1,0 q -4.7,-0.4 -5.05,-5.15 l -0.05,-0.6 0,-0.25 0,-33 q 0,-6 6,-6 l 33,0 q 6,0 6,6" />
    <path
       style="fill:#886644;stroke:none"
       inkscape:connector-curvature="0"
       id="path266"
       d="m 644.92859,275.29078 q -3.5,0 -3.9,3.05 l -0.1,0.95 0,33 0.1,1 q 0.4,3 3.9,3 l 33,0 q 3.5,0 3.95,-3 l 0.05,-1 0,-33 -0.05,-0.95 q -0.45,-3.05 -3.95,-3.05 l -33,0 m 33,-2 q 6,0 6,6 l 0,33 0,0.25 q -0.15,5.75 -6,5.75 l -33,0 -0.25,0 -0.15,0 -0.2,0 -0.1,0 -0.1,0 -0.1,0 q -4.7,-0.4 -5.05,-5.15 l -0.05,-0.6 0,-0.25 0,-33 q 0,-6 6,-6 l 33,0" />
    <path
       style="fill:#b7916a;stroke:none"
       inkscape:connector-curvature="0"
       id="path268"
       d="m 644.92859,275.29078 33,0 q 3.5,0 3.95,3.05 l 0.05,0.95 0,33 -0.05,1 q -0.45,3 -3.95,3 l -33,0 q -3.5,0 -3.9,-3 l -0.1,-1 0,-33 0.1,-0.95 q 0.4,-3.05 3.9,-3.05 m 35,9.3 0,-5.3 -0.05,-0.7 0.05,0.05 q -0.35,-1.35 -2,-1.35 l -33,0 q -1.65,0 -1.9,1.3 l -0.05,0.2 -0.05,0.5 0,23.9 2.75,2.75 -2.75,2.75 0,3.6 q 0,1.95 1.9,2 l 33.25,0 q 1.85,-0.05 1.85,-2 l 0,-22.9 -2.4,-2.4 2.4,-2.4" />
    <path
       style="fill:#97714a;stroke:none"
       inkscape:connector-curvature="0"
       id="path270"
       d="m 679.92859,284.59078 -2.4,2.4 2.4,2.4 0,22.9 q 0,1.95 -1.85,2 l -33.25,0 q -1.9,-0.05 -1.9,-2 l 0,-3.6 2.75,-2.75 -2.75,-2.75 0,-23.9 0.05,-0.5 0.05,-0.2 q 0.25,-1.3 1.9,-1.3 l 33,0 q 1.65,0 2,1.35 l -0.05,-0.05 0.05,0.7 0,5.3" />
    <path
       style="fill:#d3bf8f;stroke:none"
       inkscape:connector-curvature="0"
       id="path272"
       d="m 642.92859,339.29078 0.05,-0.5 0.05,-0.2 q 0.25,-1.3 1.9,-1.3 l 33,0 q 1.65,0 2,1.35 l -0.05,-0.05 0.05,0.7 0,5.3 -2.4,2.4 2.4,2.4 0,22.9 q 0,1.95 -1.85,2 l -33.25,0 q -1.9,-0.05 -1.9,-2 l 0,-3.6 2.75,-2.75 -2.75,-2.75 0,-23.9" />
    <path
       style="fill:#b1a077;stroke:none"
       inkscape:connector-curvature="0"
       id="path274"
       d="m 642.92859,339.29078 0,23.9 2.75,2.75 -2.75,2.75 0,3.6 q 0,1.95 1.9,2 l 33.25,0 q 1.85,-0.05 1.85,-2 l 0,-22.9 -2.4,-2.4 2.4,-2.4 0,-5.3 -0.05,-0.7 0.05,0.05 q -0.35,-1.35 -2,-1.35 l -33,0 q -1.65,0 -1.9,1.3 l -0.05,0.2 -0.05,0.5 m -1.9,-0.95 q 0.4,-3.05 3.9,-3.05 l 33,0 q 3.5,0 3.95,3.05 l 0.05,0.95 0,33 -0.05,1 q -0.45,3 -3.95,3 l -33,0 q -3.5,0 -3.9,-3 l -0.1,-1 0,-33 0.1,-0.95" />
    <path
       style="fill:#d9cdaf;stroke:none"
       inkscape:connector-curvature="0"
       id="path276"
       d="m 641.02859,338.34078 -0.1,0.95 0,33 0.1,1 q 0.4,3 3.9,3 l 33,0 q 3.5,0 3.95,-3 l 0.05,-1 0,-33 -0.05,-0.95 q -0.45,-3.05 -3.95,-3.05 l -33,0 q -3.5,0 -3.9,3.05 m 3.9,-5.05 33,0 q 6,0 6,6 l 0,33.25 q -0.15,5.75 -6,5.75 l -33,0 -0.25,0 -0.15,0 -0.2,0 -0.1,0 -0.1,0 -0.1,0 q -4.7,-0.4 -5.05,-5.15 l -0.05,-0.6 0,-33.25 q 0,-6 6,-6" />
    <path
       style="fill:#cbcbcb;stroke:none"
       inkscape:connector-curvature="0"
       id="path278"
       d="m 681.87859,398.34078 0.05,0.95 0,33 -0.05,1 q -0.45,3 -3.95,3 l -33,0 q -3.5,0 -3.9,-3 l -0.1,-1 0,-33 0.1,-0.95 q 0.4,-3.05 3.9,-3.05 l 33,0 q 3.5,0 3.95,3.05 m -3.95,-1.05 -33,0 q -1.65,0 -1.9,1.3 l -0.05,0.2 -0.05,0.5 0,23.9 2.75,2.75 -2.75,2.75 0,3.6 q 0,1.95 1.9,2 l 33.25,0 q 1.85,-0.05 1.85,-2 l 0,-22.9 -2.4,-2.4 2.4,-2.4 0,-5.3 -0.05,-0.7 0.05,0.05 q -0.35,-1.35 -2,-1.35" />
    <path
       style="fill:#e9e9e9;stroke:none"
       inkscape:connector-curvature="0"
       id="path280"
       d="m 681.87859,398.34078 q -0.45,-3.05 -3.95,-3.05 l -33,0 q -3.5,0 -3.9,3.05 l -0.1,0.95 0,33 0.1,1 q 0.4,3 3.9,3 l 33,0 q 3.5,0 3.95,-3 l 0.05,-1 0,-33 -0.05,-0.95 m 2.05,0.95 0,33 0,0.25 q -0.15,5.75 -6,5.75 l -33,0 -0.25,0 -0.15,0 -0.2,0 -0.1,0 -0.1,0 -0.1,0 q -4.7,-0.4 -5.05,-5.15 l -0.05,-0.6 0,-0.25 0,-33 q 0,-6 6,-6 l 33,0 q 6,0 6,6" />
    <path
       style="fill:#e5e5e5;stroke:none"
       inkscape:connector-curvature="0"
       id="path282"
       d="m 677.92859,397.29078 q 1.65,0 2,1.35 l -0.05,-0.05 0.05,0.7 0,5.3 -2.4,2.4 2.4,2.4 0,22.9 q 0,1.95 -1.85,2 l -33.25,0 q -1.9,-0.05 -1.9,-2 l 0,-3.6 2.75,-2.75 -2.75,-2.75 0,-23.9 0.05,-0.5 0.05,-0.2 q 0.25,-1.3 1.9,-1.3 l 33,0" />
    <g
       id="g8279"
       transform="translate(-729.40762,193.04066)"
       inkscape:export-filename="/home/gt/dev/tinycoderu/phaser3-racing-car/assets/startBtn.png"
       inkscape:export-xdpi="90"
       inkscape:export-ydpi="90">
      <g
         id="g8269">
        <path
           style="fill:#727685;stroke:none"
           inkscape:connector-curvature="0"
           id="path172"
           d="m 1363.7159,1073.0239 0.05,0.95 0,33 q 0,4 -4,4 l -178,0 q -4,0 -4,-4 l 0,-33 0.1,-0.95 q 0.4,-3.05 3.9,-3.05 l 178,0 q 3.5,0 3.95,3.05 m -1.95,0.95 -0.05,-0.7 0.05,0.05 q -0.35,-1.35 -2,-1.35 l -141.5,0 -2.8,2.8 -2.8,-2.8 -9.35,0 -2.25,2.25 -2.25,-2.25 -17.05,0 q -1.65,0 -1.9,1.3 l -0.05,0.2 -0.05,0.5 0,23.9 2.75,2.75 -2.75,2.75 0,3.6 q 0,2 2,2 l 91.9,0 2.75,-2.75 2.75,2.75 42.55,0 1.55,-1.55 1.55,1.55 34.95,0 q 2,0 2,-2 l 0,-22.9 -2.4,-2.4 2.4,-2.4 0,-5.3" />
        <path
           style="fill:#9b9dad;stroke:none"
           inkscape:connector-curvature="0"
           id="path174"
           d="m 1363.7159,1073.0239 q -0.45,-3.05 -3.95,-3.05 l -178,0 q -3.5,0 -3.9,3.05 l -0.1,0.95 0,33 q 0,4 4,4 l 178,0 q 4,0 4,-4 l 0,-33 -0.05,-0.95 m -187.95,34.2 0,-33.25 q 0,-6 6,-6 l 178,0 q 6,0 6,6 l 0,33.25 q -0.15,5.75 -6,5.75 l -178,0 q -5.85,0 -6,-5.75" />
        <path
           style="fill:#838796;stroke:none"
           inkscape:connector-curvature="0"
           id="path176"
           d="m 1361.7659,1073.9739 0,5.3 -2.4,2.4 2.4,2.4 0,22.9 q 0,2 -2,2 l -34.95,0 -1.55,-1.55 -1.55,1.55 -42.55,0 -2.75,-2.75 -2.75,2.75 -91.9,0 q -2,0 -2,-2 l 0,-3.6 2.75,-2.75 -2.75,-2.75 0,-23.9 0.05,-0.5 0.05,-0.2 q 0.25,-1.3 1.9,-1.3 l 17.05,0 2.25,2.25 2.25,-2.25 9.35,0 2.8,2.8 2.8,-2.8 141.5,0 q 1.65,0 2,1.35 l -0.05,-0.05 0.05,0.7" />
        <path
           style="fill:#616374;stroke:none"
           inkscape:connector-curvature="0"
           id="path178"
           d="m 1365.7659,1107.2239 0,3.75 q 0,6 -6,6 l -178,0 q -6,0 -6,-6 l 0,-3.75 q 0.15,5.75 6,5.75 l 178,0 q 5.85,0 6,-5.75" />
      </g>
      <text
         transform="scale(1.0428201,0.95893818)"
         sodipodi:linespacing="125%"
         id="text8275"
         y="1152.2831"
         x="1162.1342"
         style="font-style:normal;font-weight:normal;font-size:35.79359436px;line-height:125%;font-family:sans-serif;letter-spacing:0px;word-spacing:0px;fill:#000000;fill-opacity:1;stroke:none;stroke-width:1px;stroke-linecap:butt;stroke-linejoin:miter;stroke-opacity:1"
         xml:space="preserve"><tspan
           style="fill:#eef1f3;fill-opacity:1"
           y="1152.2831"
           x="1162.1342"
           id="tspan8277"
           sodipodi:role="line">START</tspan></text>
    </g>
    <g
       id="g8627"
       inkscape:export-filename="/home/gt/dev/tinycoderu/phaser3-racing-car/assets/deathscreen.png"
       inkscape:export-xdpi="90"
       inkscape:export-ydpi="90">
      <g
         id="g8617">
        <g
           transform="translate(874.28577,-44.285714)"
           id="g8306">
          <path
             style="fill:#b7916a;stroke:none"
             inkscape:connector-curvature="0"
             id="path8308"
             d="m 250.83011,795.61669 -2.85,2.9 -2.9,-2.9 -41.55,0 c -2.03333,0 -3.05947,1.01669 -3.05,3.05 l 0,429.20001 1.75,1.75 -1.75,1.7 0,4.95 2.8,2.8 -2.8,2.8 0,10.7 c 0,2.0333 1.01667,3.05 3.05,3.05 l 8.8,0 2.2,-2.2 2.2,2.2 926.64999,0 c 2.0667,0 3.1,-1.0167 3.1,-3.05 l 0,-5.7 -4.1,-4.1 4.1,-4.15 0,-423.15001 -3.1,-3.1 3.1,-3.15 0,-10.55 c 0,-2.03333 -1.0333,-3.05 -3.1,-3.05 l -892.54999,0 m -52.35,456.95001 0,-453.90001 c 0,-3.36667 1.68333,-5.05 5.05,-5.05 l 939.84999,0 c 3.4,0 5.1,1.68333 5.1,5.05 l 0,453.90001 c 0,3.3667 -1.7,5.05 -5.1,5.05 l -939.84999,0 c -3.36667,0 -5.05,-1.6833 -5.05,-5.05"
             sodipodi:nodetypes="cccssccccccsscccssccccccssccsssssssc" />
          <path
             style="fill:#97714a;stroke:none"
             inkscape:connector-curvature="0"
             id="path8310"
             d="m 250.83011,795.61669 892.54999,0 c 2.0667,0 3.4787,1.05225 3.1,3.05 l 0,10.55 -3.1,3.15 3.1,3.1 0,423.15001 -4.1,4.15 4.1,4.1 0,5.7 c 0,2.0333 -1.0333,3.0552 -3.1,3.05 l -926.64999,0 -2.2,-2.2 -2.2,2.2 -8.8,0 c -2.03333,0 -3.05,-1.0167 -3.05,-3.05 l 0,-10.7 2.8,-2.8 -2.8,-2.8 0,-4.95 1.75,-1.7 -1.75,-1.75 0,-429.20001 c 0,-2.03333 1.01667,-3.05 3.05,-3.05 l 41.55,0 2.9,2.9 2.85,-2.9"
             sodipodi:nodetypes="cssccccccsscccssccccccssccc" />
          <path
             style="fill:#886644;stroke:none"
             inkscape:connector-curvature="0"
             id="path8312"
             d="m 1148.6301,793.46669 c 1.2333,1.13333 1.85,2.86667 1.85,5.2 l 0,453.90001 c 0,2.3333 -0.6167,4.0667 -1.85,5.2 -1.1333,1.2333 -2.8833,1.85 -5.25,1.85 l -939.84999,0 c -4.7,0 -7.05,-2.35 -7.05,-7.05 l 0,-453.90001 c 0,-4.7 2.35,-7.05 7.05,-7.05 l 939.84999,0 c 2.3667,0 4.1167,0.61667 5.25,1.85 M 198.48011,1252.5667 c 0,3.3667 1.68333,5.05 5.05,5.05 l 939.84999,0 c 3.4,0 5.1,-1.6833 5.1,-5.05 l 0,-453.90001 c 0,-3.36667 -1.7,-5.05 -5.1,-5.05 l -939.84999,0 c -3.36667,0 -5.05,1.68333 -5.05,5.05 l 0,453.90001"
             sodipodi:nodetypes="csscssssssccsssssssc" />
        </g>
        <g
           transform="translate(849.05159,-70.54968)"
           id="g8314">
          <path
             style="fill:#b1a077;stroke:none"
             inkscape:connector-curvature="0"
             id="path8316"
             d="m 269.71428,1135.4693 1.75,1.75 -1.75,1.7 0,4.95 2.8,2.8 -2.8,2.8 0,10.7 c 0,2.0333 1.01667,3.05 3.05,3.05 l 8.8,0 2.2,-2.2 2.2,2.2 838.65002,0 c 2.0667,0 3.1,-1.0167 3.1,-3.05 l 0,-5.7 -4.1,-4.1 4.1,-4.15 0,-277.14996 -3.1,-3.1 3.1,-3.15 0,-10.55 c 0,-2.03333 -1.0333,-3.05 -3.1,-3.05 l -804.55002,0 -2.85,2.9 -2.9,-2.9 -41.55,0 c -2.03333,0 -3.05,1.01667 -3.05,3.05 l 0,283.19996 m -2,24.7 0,-307.89996 c 0,-3.36667 1.68333,-5.05 5.05,-5.05 l 851.85002,0 c 3.4,0 5.1,1.68333 5.1,5.05 l 0,307.89996 c 0,3.3667 -1.7,5.05 -5.1,5.05 l -851.85002,0 c -3.36667,0 -5.05,-1.6833 -5.05,-5.05"
             sodipodi:nodetypes="ccccccsscccssccccccsscccssccsssssssc" />
          <path
             style="fill:#d3bf8f;stroke:none"
             inkscape:connector-curvature="0"
             id="path8318"
             d="m 269.71428,1135.4693 0,-283.19996 c 0,-2.03333 1.01667,-3.05 3.05,-3.05 l 41.55,0 2.9,2.9 2.85,-2.9 804.55002,0 c 2.0667,0 3.4787,1.05225 3.1,3.05 l 0,10.55 -3.1,3.15 3.1,3.1 0,277.14996 -4.1,4.15 4.1,4.1 0,5.7 c 0,2.0333 -1.0334,3.055 -3.1,3.05 l -838.65002,0 -2.2,-2.2 -2.2,2.2 -8.8,0 c -2.03333,0 -3.05,-1.0167 -3.05,-3.05 l 0,-10.7 2.8,-2.8 -2.8,-2.8 0,-4.95 1.75,-1.7 -1.75,-1.75"
             sodipodi:nodetypes="csscccssccccccsscccsscccccc" />
          <path
             style="fill:#d9cdaf;stroke:none"
             inkscape:connector-curvature="0"
             id="path8320"
             d="m 267.71428,1160.1693 c 0,3.3667 1.68333,5.05 5.05,5.05 l 851.85002,0 c 3.4,0 5.1,-1.6833 5.1,-5.05 l 0,-307.89996 c 0,-3.36667 -1.7,-5.05 -5.1,-5.05 l -851.85002,0 c -3.36667,0 -5.05,1.68333 -5.05,5.05 l 0,307.89996 m -2,0 0,-307.89996 c 0,-4.7 2.35,-7.05 7.05,-7.05 l 851.85002,0 c 2.3667,0 4.1167,0.61667 5.25,1.85 1.2333,1.13333 1.85,2.86667 1.85,5.2 l 0,307.89996 c 0,2.3333 -0.6167,4.0667 -1.85,5.2 -1.1333,1.2333 -2.8833,1.85 -5.25,1.85 l -851.85002,0 c -4.7,0 -7.05,-2.35 -7.05,-7.05"
             sodipodi:nodetypes="csssssssccssscsscssc" />
        </g>
      </g>
      <g
         transform="translate(-25.328753,19.22846)"
         id="g8608">
        <g
           id="g8502"
           transform="matrix(5.6103896,0,0,5.6103896,-5914.9966,-1149.2379)">
          <path
             d="m 1309.7516,363.18817 -6,-1.15 0,-2.05 6,1.15 0,2.05 m -8.2,13.7 0,0.3 q 0,0.85 -0.55,1.45 -0.6,0.55 -1.45,0.55 l -4,0 q -0.85,0 -1.4,-0.55 -0.6,-0.6 -0.6,-1.45 l 0,-18 q 0,-0.85 0.6,-1.4 0.55,-0.6 1.4,-0.6 l 4,0 q 0.85,0 1.45,0.6 0.55,0.55 0.55,1.4 l 0,0.35 -2,1.65 0,-2 -4,0 0,18 4,0 0,-1.95 2,1.65 m 8.2,-1.6 -6,1.2 0,-2.05 6,-1.2 0,2.05"
             id="path27786"
             inkscape:connector-curvature="0"
             style="fill:#c67700;stroke:none" />
          <path
             d="m 1299.5516,375.23817 0,1.95 -4,0 0,-18 4,0 0,2 0,14.05 m 4.2,-0.8 0,-12.4 6,1.15 0,10.05 -6,1.2"
             id="path27788"
             inkscape:connector-curvature="0"
             style="fill:#ff9900;stroke:none" />
          <path
             d="m 1301.5516,359.53817 2.2,0.45 0,2.05 -4,-0.8 -0.2,-0.05 2,-1.65 m 8.2,1.6 4.4,0.85 -0.1,0 q 1.05,0.1 1.85,1.05 0.65,0.7 0.65,1.9 l 0,6.55 q 0,1.1 -0.65,1.85 l 0,0.05 q -0.8,0.9 -1.85,1.05 l 0.1,0 -4.4,0.85 0,-2.05 4,-0.8 0.6,-0.35 0.2,-0.6 0,-6.55 -0.2,-0.65 -0.6,-0.35 -4,-0.75 0,-2.05 m -6,15.35 -2.2,0.4 -2,-1.65 0.2,-0.05 4,-0.75 0,2.05"
             id="path27790"
             inkscape:connector-curvature="0"
             style="fill:#bdbdbd;stroke:none" />
          <path
             d="m 1299.5516,361.18817 0.2,0.05 4,0.8 0,12.4 -4,0.75 -0.2,0.05 0,-14.05 m 10.2,2 4,0.75 0.6,0.35 0.2,0.65 0,6.55 -0.2,0.6 -0.6,0.35 -4,0.8 0,-10.05"
             id="path27792"
             inkscape:connector-curvature="0"
             style="fill:#ffffff;stroke:none" />
        </g>
        <text
           xml:space="preserve"
           style="font-style:normal;font-weight:normal;font-size:48.1099205px;line-height:125%;font-family:sans-serif;letter-spacing:0px;word-spacing:0px;fill:#000000;fill-opacity:1;stroke:none;stroke-width:1px;stroke-linecap:butt;stroke-linejoin:miter;stroke-opacity:1"
           x="1501.1621"
           y="941.46069"
           id="text7779-4"
           sodipodi:linespacing="125%"><tspan
             sodipodi:role="line"
             id="tspan7781-5"
             x="1501.1621"
             y="941.46069"
             style="font-size:70px;fill:#444447;fill-opacity:1">You WIN!</tspan></text>
      </g>
    </g>
    <g
       id="g8783"
       inkscape:export-filename="/home/gt/dev/tinycoderu/phaser3-racing-car/assets/startscreen.png"
       inkscape:export-xdpi="90"
       inkscape:export-ydpi="90">
      <g
         transform="translate(-120,-41.428571)"
         id="g5675">
        <path
           style="fill:#b7916a;stroke:none"
           inkscape:connector-curvature="0"
           id="path290-7"
           d="m 250.83011,795.61669 -2.85,2.9 -2.9,-2.9 -41.55,0 c -2.03333,0 -3.05947,1.01669 -3.05,3.05 l 0,429.20001 1.75,1.75 -1.75,1.7 0,4.95 2.8,2.8 -2.8,2.8 0,10.7 c 0,2.0333 1.01667,3.05 3.05,3.05 l 8.8,0 2.2,-2.2 2.2,2.2 926.64999,0 c 2.0667,0 3.1,-1.0167 3.1,-3.05 l 0,-5.7 -4.1,-4.1 4.1,-4.15 0,-423.15001 -3.1,-3.1 3.1,-3.15 0,-10.55 c 0,-2.03333 -1.0333,-3.05 -3.1,-3.05 l -892.54999,0 m -52.35,456.95001 0,-453.90001 c 0,-3.36667 1.68333,-5.05 5.05,-5.05 l 939.84999,0 c 3.4,0 5.1,1.68333 5.1,5.05 l 0,453.90001 c 0,3.3667 -1.7,5.05 -5.1,5.05 l -939.84999,0 c -3.36667,0 -5.05,-1.6833 -5.05,-5.05"
           sodipodi:nodetypes="cccssccccccsscccssccccccssccsssssssc" />
        <path
           style="fill:#97714a;stroke:none"
           inkscape:connector-curvature="0"
           id="path292-9"
           d="m 250.83011,795.61669 892.54999,0 c 2.0667,0 3.4787,1.05225 3.1,3.05 l 0,10.55 -3.1,3.15 3.1,3.1 0,423.15001 -4.1,4.15 4.1,4.1 0,5.7 c 0,2.0333 -1.0333,3.0552 -3.1,3.05 l -926.64999,0 -2.2,-2.2 -2.2,2.2 -8.8,0 c -2.03333,0 -3.05,-1.0167 -3.05,-3.05 l 0,-10.7 2.8,-2.8 -2.8,-2.8 0,-4.95 1.75,-1.7 -1.75,-1.75 0,-429.20001 c 0,-2.03333 1.01667,-3.05 3.05,-3.05 l 41.55,0 2.9,2.9 2.85,-2.9"
           sodipodi:nodetypes="cssccccccsscccssccccccssccc" />
        <path
           style="fill:#886644;stroke:none"
           inkscape:connector-curvature="0"
           id="path294-2"
           d="m 1148.6301,793.46669 c 1.2333,1.13333 1.85,2.86667 1.85,5.2 l 0,453.90001 c 0,2.3333 -0.6167,4.0667 -1.85,5.2 -1.1333,1.2333 -2.8833,1.85 -5.25,1.85 l -939.84999,0 c -4.7,0 -7.05,-2.35 -7.05,-7.05 l 0,-453.90001 c 0,-4.7 2.35,-7.05 7.05,-7.05 l 939.84999,0 c 2.3667,0 4.1167,0.61667 5.25,1.85 M 198.48011,1252.5667 c 0,3.3667 1.68333,5.05 5.05,5.05 l 939.84999,0 c 3.4,0 5.1,-1.6833 5.1,-5.05 l 0,-453.90001 c 0,-3.36667 -1.7,-5.05 -5.1,-5.05 l -939.84999,0 c -3.36667,0 -5.05,1.68333 -5.05,5.05 l 0,453.90001"
           sodipodi:nodetypes="csscssssssccsssssssc" />
      </g>
      <g
         transform="translate(-145.23418,-67.692537)"
         id="g5701">
        <path
           style="fill:#b1a077;stroke:none"
           inkscape:connector-curvature="0"
           id="path284-0"
           d="m 269.71428,1135.4693 1.75,1.75 -1.75,1.7 0,4.95 2.8,2.8 -2.8,2.8 0,10.7 c 0,2.0333 1.01667,3.05 3.05,3.05 l 8.8,0 2.2,-2.2 2.2,2.2 838.65002,0 c 2.0667,0 3.1,-1.0167 3.1,-3.05 l 0,-5.7 -4.1,-4.1 4.1,-4.15 0,-277.14996 -3.1,-3.1 3.1,-3.15 0,-10.55 c 0,-2.03333 -1.0333,-3.05 -3.1,-3.05 l -804.55002,0 -2.85,2.9 -2.9,-2.9 -41.55,0 c -2.03333,0 -3.05,1.01667 -3.05,3.05 l 0,283.19996 m -2,24.7 0,-307.89996 c 0,-3.36667 1.68333,-5.05 5.05,-5.05 l 851.85002,0 c 3.4,0 5.1,1.68333 5.1,5.05 l 0,307.89996 c 0,3.3667 -1.7,5.05 -5.1,5.05 l -851.85002,0 c -3.36667,0 -5.05,-1.6833 -5.05,-5.05"
           sodipodi:nodetypes="ccccccsscccssccccccsscccssccsssssssc" />
        <path
           style="fill:#d3bf8f;stroke:none"
           inkscape:connector-curvature="0"
           id="path286-2"
           d="m 269.71428,1135.4693 0,-283.19996 c 0,-2.03333 1.01667,-3.05 3.05,-3.05 l 41.55,0 2.9,2.9 2.85,-2.9 804.55002,0 c 2.0667,0 3.4787,1.05225 3.1,3.05 l 0,10.55 -3.1,3.15 3.1,3.1 0,277.14996 -4.1,4.15 4.1,4.1 0,5.7 c 0,2.0333 -1.0334,3.055 -3.1,3.05 l -838.65002,0 -2.2,-2.2 -2.2,2.2 -8.8,0 c -2.03333,0 -3.05,-1.0167 -3.05,-3.05 l 0,-10.7 2.8,-2.8 -2.8,-2.8 0,-4.95 1.75,-1.7 -1.75,-1.75"
           sodipodi:nodetypes="csscccssccccccsscccsscccccc" />
        <path
           style="fill:#d9cdaf;stroke:none"
           inkscape:connector-curvature="0"
           id="path288-3"
           d="m 267.71428,1160.1693 c 0,3.3667 1.68333,5.05 5.05,5.05 l 851.85002,0 c 3.4,0 5.1,-1.6833 5.1,-5.05 l 0,-307.89996 c 0,-3.36667 -1.7,-5.05 -5.1,-5.05 l -851.85002,0 c -3.36667,0 -5.05,1.68333 -5.05,5.05 l 0,307.89996 m -2,0 0,-307.89996 c 0,-4.7 2.35,-7.05 7.05,-7.05 l 851.85002,0 c 2.3667,0 4.1167,0.61667 5.25,1.85 1.2333,1.13333 1.85,2.86667 1.85,5.2 l 0,307.89996 c 0,2.3333 -0.6167,4.0667 -1.85,5.2 -1.1333,1.2333 -2.8833,1.85 -5.25,1.85 l -851.85002,0 c -4.7,0 -7.05,-2.35 -7.05,-7.05"
           sodipodi:nodetypes="csssssssccssscsscssc" />
      </g>
      <text
         sodipodi:linespacing="125%"
         id="text7779"
         y="849.95233"
         x="260.63263"
         style="font-style:normal;font-weight:normal;font-size:48.1099205px;line-height:125%;font-family:sans-serif;letter-spacing:0px;word-spacing:0px;fill:#000000;fill-opacity:1;stroke:none;stroke-width:1px;stroke-linecap:butt;stroke-linejoin:miter;stroke-opacity:1"
         xml:space="preserve"><tspan
           style="fill:#444447;fill-opacity:1"
           y="849.95233"
           x="260.63263"
           id="tspan7781"
           sodipodi:role="line">Hit all cones using keys</tspan></text>
      <g
         id="g8731">
        <g
           id="g8704">
          <g
             transform="translate(-539.9783,494.26917)"
             id="g6208">
            <g
               id="g5747"
               transform="translate(-63.162271,11.883296)">
              <path
                 d="m 956.93169,444.27296 -0.05,-0.05 0.05,0.7 0,5.3 -2.4,2.4 2.4,2.4 0,22.9 q 0,1.95 -1.85,2 l -33.24998,0 q -1.9,-0.05 -1.9,-2 l 0,-3.6 2.75,-2.75 -2.75,-2.75 0,-23.9 0.05,-0.5 0.05,-0.2 q 0.25,-1.3 1.9,-1.3 l 32.99998,0 q 1.65,0 2,1.35"
                 id="path260-7"
                 inkscape:connector-curvature="0"
                 style="fill:#838796;stroke:none" />
              <path
                 d="m 956.93169,444.27296 q -0.35,-1.35 -2,-1.35 l -32.99998,0 q -1.65,0 -1.9,1.3 l -0.05,0.2 -0.05,0.5 0,23.9 2.75,2.75 -2.75,2.75 0,3.6 q 0,1.95 1.9,2 l 33.24998,0 q 1.85,-0.05 1.85,-2 l 0,-22.9 -2.4,-2.4 2.4,-2.4 0,-5.3 -0.05,-0.7 0.05,0.05 m -2,-3.35 q 3.5,0 3.95,3.05 l 0.05,0.95 0,33 -0.05,1 q -0.45,3 -3.95,3 l -32.99998,0 q -3.5,0 -3.9,-3 l -0.1,-1 0,-33 0.1,-0.95 q 0.4,-3.05 3.9,-3.05 l 32.99998,0"
                 id="path262-5"
                 inkscape:connector-curvature="0"
                 style="fill:#727685;stroke:none" />
              <path
                 d="m 954.93169,440.92296 -32.99998,0 q -3.5,0 -3.9,3.05 l -0.1,0.95 0,33 0.1,1 q 0.4,3 3.9,3 l 32.99998,0 q 3.5,0 3.95,-3 l 0.05,-1 0,-33 -0.05,-0.95 q -0.45,-3.05 -3.95,-3.05 m 6,4 0,33 0,0.25 q -0.15,5.75 -6,5.75 l -32.99998,0 -0.25,0 -0.15,0 -0.2,0 -0.1,0 -0.1,0 -0.1,0 q -4.7,-0.4 -5.05,-5.15 l -0.05,-0.6 0,-0.25 0,-33 q 0,-6 6,-6 l 32.99998,0 q 6,0 6,6"
                 id="path264-9"
                 inkscape:connector-curvature="0"
                 style="fill:#9b9dad;stroke:none" />
            </g>
            <g
               id="g5752"
               transform="translate(30.837689,11.883296)">
              <path
                 style="fill:#838796;stroke:none"
                 inkscape:connector-curvature="0"
                 id="path5754"
                 d="m 956.93169,444.27296 -0.05,-0.05 0.05,0.7 0,5.3 -2.4,2.4 2.4,2.4 0,22.9 q 0,1.95 -1.85,2 l -33.24998,0 q -1.9,-0.05 -1.9,-2 l 0,-3.6 2.75,-2.75 -2.75,-2.75 0,-23.9 0.05,-0.5 0.05,-0.2 q 0.25,-1.3 1.9,-1.3 l 32.99998,0 q 1.65,0 2,1.35" />
              <path
                 style="fill:#727685;stroke:none"
                 inkscape:connector-curvature="0"
                 id="path5756"
                 d="m 956.93169,444.27296 q -0.35,-1.35 -2,-1.35 l -32.99998,0 q -1.65,0 -1.9,1.3 l -0.05,0.2 -0.05,0.5 0,23.9 2.75,2.75 -2.75,2.75 0,3.6 q 0,1.95 1.9,2 l 33.24998,0 q 1.85,-0.05 1.85,-2 l 0,-22.9 -2.4,-2.4 2.4,-2.4 0,-5.3 -0.05,-0.7 0.05,0.05 m -2,-3.35 q 3.5,0 3.95,3.05 l 0.05,0.95 0,33 -0.05,1 q -0.45,3 -3.95,3 l -32.99998,0 q -3.5,0 -3.9,-3 l -0.1,-1 0,-33 0.1,-0.95 q 0.4,-3.05 3.9,-3.05 l 32.99998,0" />
              <path
                 style="fill:#9b9dad;stroke:none"
                 inkscape:connector-curvature="0"
                 id="path5758"
                 d="m 954.93169,440.92296 -32.99998,0 q -3.5,0 -3.9,3.05 l -0.1,0.95 0,33 0.1,1 q 0.4,3 3.9,3 l 32.99998,0 q 3.5,0 3.95,-3 l 0.05,-1 0,-33 -0.05,-0.95 q -0.45,-3.05 -3.95,-3.05 m 6,4 0,33 0,0.25 q -0.15,5.75 -6,5.75 l -32.99998,0 -0.25,0 -0.15,0 -0.2,0 -0.1,0 -0.1,0 -0.1,0 q -4.7,-0.4 -5.05,-5.15 l -0.05,-0.6 0,-0.25 0,-33 q 0,-6 6,-6 l 32.99998,0 q 6,0 6,6" />
            </g>
            <g
               transform="translate(-16.162241,-35.116807)"
               id="g5760">
              <path
                 d="m 956.93169,444.27296 -0.05,-0.05 0.05,0.7 0,5.3 -2.4,2.4 2.4,2.4 0,22.9 q 0,1.95 -1.85,2 l -33.24998,0 q -1.9,-0.05 -1.9,-2 l 0,-3.6 2.75,-2.75 -2.75,-2.75 0,-23.9 0.05,-0.5 0.05,-0.2 q 0.25,-1.3 1.9,-1.3 l 32.99998,0 q 1.65,0 2,1.35"
                 id="path5762"
                 inkscape:connector-curvature="0"
                 style="fill:#838796;stroke:none" />
              <path
                 d="m 956.93169,444.27296 q -0.35,-1.35 -2,-1.35 l -32.99998,0 q -1.65,0 -1.9,1.3 l -0.05,0.2 -0.05,0.5 0,23.9 2.75,2.75 -2.75,2.75 0,3.6 q 0,1.95 1.9,2 l 33.24998,0 q 1.85,-0.05 1.85,-2 l 0,-22.9 -2.4,-2.4 2.4,-2.4 0,-5.3 -0.05,-0.7 0.05,0.05 m -2,-3.35 q 3.5,0 3.95,3.05 l 0.05,0.95 0,33 -0.05,1 q -0.45,3 -3.95,3 l -32.99998,0 q -3.5,0 -3.9,-3 l -0.1,-1 0,-33 0.1,-0.95 q 0.4,-3.05 3.9,-3.05 l 32.99998,0"
                 id="path5764"
                 inkscape:connector-curvature="0"
                 style="fill:#727685;stroke:none" />
              <path
                 d="m 954.93169,440.92296 -32.99998,0 q -3.5,0 -3.9,3.05 l -0.1,0.95 0,33 0.1,1 q 0.4,3 3.9,3 l 32.99998,0 q 3.5,0 3.95,-3 l 0.05,-1 0,-33 -0.05,-0.95 q -0.45,-3.05 -3.95,-3.05 m 6,4 0,33 0,0.25 q -0.15,5.75 -6,5.75 l -32.99998,0 -0.25,0 -0.15,0 -0.2,0 -0.1,0 -0.1,0 -0.1,0 q -4.7,-0.4 -5.05,-5.15 l -0.05,-0.6 0,-0.25 0,-33 q 0,-6 6,-6 l 32.99998,0 q 6,0 6,6"
                 id="path5766"
                 inkscape:connector-curvature="0"
                 style="fill:#9b9dad;stroke:none" />
            </g>
            <g
               id="g5768"
               transform="translate(-16.162241,11.883296)">
              <path
                 style="fill:#838796;stroke:none"
                 inkscape:connector-curvature="0"
                 id="path5770"
                 d="m 956.93169,444.27296 -0.05,-0.05 0.05,0.7 0,5.3 -2.4,2.4 2.4,2.4 0,22.9 q 0,1.95 -1.85,2 l -33.24998,0 q -1.9,-0.05 -1.9,-2 l 0,-3.6 2.75,-2.75 -2.75,-2.75 0,-23.9 0.05,-0.5 0.05,-0.2 q 0.25,-1.3 1.9,-1.3 l 32.99998,0 q 1.65,0 2,1.35" />
              <path
                 style="fill:#727685;stroke:none"
                 inkscape:connector-curvature="0"
                 id="path5772"
                 d="m 956.93169,444.27296 q -0.35,-1.35 -2,-1.35 l -32.99998,0 q -1.65,0 -1.9,1.3 l -0.05,0.2 -0.05,0.5 0,23.9 2.75,2.75 -2.75,2.75 0,3.6 q 0,1.95 1.9,2 l 33.24998,0 q 1.85,-0.05 1.85,-2 l 0,-22.9 -2.4,-2.4 2.4,-2.4 0,-5.3 -0.05,-0.7 0.05,0.05 m -2,-3.35 q 3.5,0 3.95,3.05 l 0.05,0.95 0,33 -0.05,1 q -0.45,3 -3.95,3 l -32.99998,0 q -3.5,0 -3.9,-3 l -0.1,-1 0,-33 0.1,-0.95 q 0.4,-3.05 3.9,-3.05 l 32.99998,0" />
              <path
                 style="fill:#9b9dad;stroke:none"
                 inkscape:connector-curvature="0"
                 id="path5774"
                 d="m 954.93169,440.92296 -32.99998,0 q -3.5,0 -3.9,3.05 l -0.1,0.95 0,33 0.1,1 q 0.4,3 3.9,3 l 32.99998,0 q 3.5,0 3.95,-3 l 0.05,-1 0,-33 -0.05,-0.95 q -0.45,-3.05 -3.95,-3.05 m 6,4 0,33 0,0.25 q -0.15,5.75 -6,5.75 l -32.99998,0 -0.25,0 -0.15,0 -0.2,0 -0.1,0 -0.1,0 -0.1,0 q -4.7,-0.4 -5.05,-5.15 l -0.05,-0.6 0,-0.25 0,-33 q 0,-6 6,-6 l 32.99998,0 q 6,0 6,6" />
            </g>
            <text
               xml:space="preserve"
               style="font-style:normal;font-weight:normal;font-size:35px;line-height:125%;font-family:sans-serif;letter-spacing:0px;word-spacing:0px;fill:#000000;fill-opacity:1;stroke:none;stroke-width:1px;stroke-linecap:butt;stroke-linejoin:miter;stroke-opacity:1"
               x="904.95746"
               y="439.06372"
               id="text5860"
               sodipodi:linespacing="125%"><tspan
                 sodipodi:role="line"
                 id="tspan5862"
                 x="904.95746"
                 y="439.06372"
                 style="font-size:35px;fill:#f0eef2;fill-opacity:1">W</tspan></text>
            <text
               sodipodi:linespacing="125%"
               id="text5864"
               y="486.04672"
               x="910.98163"
               style="font-style:normal;font-weight:normal;font-size:35px;line-height:125%;font-family:sans-serif;letter-spacing:0px;word-spacing:0px;fill:#000000;fill-opacity:1;stroke:none;stroke-width:1px;stroke-linecap:butt;stroke-linejoin:miter;stroke-opacity:1"
               xml:space="preserve"><tspan
                 style="font-size:35px;fill:#f0eef2;fill-opacity:1"
                 y="486.04672"
                 x="910.98163"
                 id="tspan5866"
                 sodipodi:role="line">S</tspan></text>
            <text
               xml:space="preserve"
               style="font-style:normal;font-weight:normal;font-size:35px;line-height:125%;font-family:sans-serif;letter-spacing:0px;word-spacing:0px;fill:#000000;fill-opacity:1;stroke:none;stroke-width:1px;stroke-linecap:butt;stroke-linejoin:miter;stroke-opacity:1"
               x="955.11047"
               y="486.06381"
               id="text5868"
               sodipodi:linespacing="125%"><tspan
                 sodipodi:role="line"
                 id="tspan5870"
                 x="955.11047"
                 y="486.06381"
                 style="font-size:35px;fill:#f0eef2;fill-opacity:1">D</tspan></text>
            <text
               sodipodi:linespacing="125%"
               id="text5872"
               y="486.06381"
               x="863.30652"
               style="font-style:normal;font-weight:normal;font-size:35px;line-height:125%;font-family:sans-serif;letter-spacing:0px;word-spacing:0px;fill:#000000;fill-opacity:1;stroke:none;stroke-width:1px;stroke-linecap:butt;stroke-linejoin:miter;stroke-opacity:1"
               xml:space="preserve"><tspan
                 style="font-size:35px;fill:#f0eef2;fill-opacity:1"
                 y="486.06381"
                 x="863.30652"
                 id="tspan5874"
                 sodipodi:role="line">A</tspan></text>
          </g>
        </g>
        <g
           id="g8681">
          <g
             transform="translate(-407.64832,494.26917)"
             id="g7757">
            <g
               transform="translate(102.50275,11.883296)"
               id="g5796">
              <path
                 style="fill:#838796;stroke:none"
                 inkscape:connector-curvature="0"
                 id="path5798"
                 d="m 956.93169,444.27296 -0.05,-0.05 0.05,0.7 0,5.3 -2.4,2.4 2.4,2.4 0,22.9 q 0,1.95 -1.85,2 l -33.24998,0 q -1.9,-0.05 -1.9,-2 l 0,-3.6 2.75,-2.75 -2.75,-2.75 0,-23.9 0.05,-0.5 0.05,-0.2 q 0.25,-1.3 1.9,-1.3 l 32.99998,0 q 1.65,0 2,1.35" />
              <path
                 style="fill:#727685;stroke:none"
                 inkscape:connector-curvature="0"
                 id="path5800"
                 d="m 956.93169,444.27296 q -0.35,-1.35 -2,-1.35 l -32.99998,0 q -1.65,0 -1.9,1.3 l -0.05,0.2 -0.05,0.5 0,23.9 2.75,2.75 -2.75,2.75 0,3.6 q 0,1.95 1.9,2 l 33.24998,0 q 1.85,-0.05 1.85,-2 l 0,-22.9 -2.4,-2.4 2.4,-2.4 0,-5.3 -0.05,-0.7 0.05,0.05 m -2,-3.35 q 3.5,0 3.95,3.05 l 0.05,0.95 0,33 -0.05,1 q -0.45,3 -3.95,3 l -32.99998,0 q -3.5,0 -3.9,-3 l -0.1,-1 0,-33 0.1,-0.95 q 0.4,-3.05 3.9,-3.05 l 32.99998,0" />
              <path
                 style="fill:#9b9dad;stroke:none"
                 inkscape:connector-curvature="0"
                 id="path5802"
                 d="m 954.93169,440.92296 -32.99998,0 q -3.5,0 -3.9,3.05 l -0.1,0.95 0,33 0.1,1 q 0.4,3 3.9,3 l 32.99998,0 q 3.5,0 3.95,-3 l 0.05,-1 0,-33 -0.05,-0.95 q -0.45,-3.05 -3.95,-3.05 m 6,4 0,33 0,0.25 q -0.15,5.75 -6,5.75 l -32.99998,0 -0.25,0 -0.15,0 -0.2,0 -0.1,0 -0.1,0 -0.1,0 q -4.7,-0.4 -5.05,-5.15 l -0.05,-0.6 0,-0.25 0,-33 q 0,-6 6,-6 l 32.99998,0 q 6,0 6,6" />
            </g>
            <g
               transform="translate(196.50271,11.883296)"
               id="g5804">
              <path
                 d="m 956.93169,444.27296 -0.05,-0.05 0.05,0.7 0,5.3 -2.4,2.4 2.4,2.4 0,22.9 q 0,1.95 -1.85,2 l -33.24998,0 q -1.9,-0.05 -1.9,-2 l 0,-3.6 2.75,-2.75 -2.75,-2.75 0,-23.9 0.05,-0.5 0.05,-0.2 q 0.25,-1.3 1.9,-1.3 l 32.99998,0 q 1.65,0 2,1.35"
                 id="path5806"
                 inkscape:connector-curvature="0"
                 style="fill:#838796;stroke:none" />
              <path
                 d="m 956.93169,444.27296 q -0.35,-1.35 -2,-1.35 l -32.99998,0 q -1.65,0 -1.9,1.3 l -0.05,0.2 -0.05,0.5 0,23.9 2.75,2.75 -2.75,2.75 0,3.6 q 0,1.95 1.9,2 l 33.24998,0 q 1.85,-0.05 1.85,-2 l 0,-22.9 -2.4,-2.4 2.4,-2.4 0,-5.3 -0.05,-0.7 0.05,0.05 m -2,-3.35 q 3.5,0 3.95,3.05 l 0.05,0.95 0,33 -0.05,1 q -0.45,3 -3.95,3 l -32.99998,0 q -3.5,0 -3.9,-3 l -0.1,-1 0,-33 0.1,-0.95 q 0.4,-3.05 3.9,-3.05 l 32.99998,0"
                 id="path5808"
                 inkscape:connector-curvature="0"
                 style="fill:#727685;stroke:none" />
              <path
                 d="m 954.93169,440.92296 -32.99998,0 q -3.5,0 -3.9,3.05 l -0.1,0.95 0,33 0.1,1 q 0.4,3 3.9,3 l 32.99998,0 q 3.5,0 3.95,-3 l 0.05,-1 0,-33 -0.05,-0.95 q -0.45,-3.05 -3.95,-3.05 m 6,4 0,33 0,0.25 q -0.15,5.75 -6,5.75 l -32.99998,0 -0.25,0 -0.15,0 -0.2,0 -0.1,0 -0.1,0 -0.1,0 q -4.7,-0.4 -5.05,-5.15 l -0.05,-0.6 0,-0.25 0,-33 q 0,-6 6,-6 l 32.99998,0 q 6,0 6,6"
                 id="path5810"
                 inkscape:connector-curvature="0"
                 style="fill:#9b9dad;stroke:none" />
            </g>
            <g
               id="g5812"
               transform="translate(149.50278,-35.116807)">
              <path
                 style="fill:#838796;stroke:none"
                 inkscape:connector-curvature="0"
                 id="path5814"
                 d="m 956.93169,444.27296 -0.05,-0.05 0.05,0.7 0,5.3 -2.4,2.4 2.4,2.4 0,22.9 q 0,1.95 -1.85,2 l -33.24998,0 q -1.9,-0.05 -1.9,-2 l 0,-3.6 2.75,-2.75 -2.75,-2.75 0,-23.9 0.05,-0.5 0.05,-0.2 q 0.25,-1.3 1.9,-1.3 l 32.99998,0 q 1.65,0 2,1.35" />
              <path
                 style="fill:#727685;stroke:none"
                 inkscape:connector-curvature="0"
                 id="path5816"
                 d="m 956.93169,444.27296 q -0.35,-1.35 -2,-1.35 l -32.99998,0 q -1.65,0 -1.9,1.3 l -0.05,0.2 -0.05,0.5 0,23.9 2.75,2.75 -2.75,2.75 0,3.6 q 0,1.95 1.9,2 l 33.24998,0 q 1.85,-0.05 1.85,-2 l 0,-22.9 -2.4,-2.4 2.4,-2.4 0,-5.3 -0.05,-0.7 0.05,0.05 m -2,-3.35 q 3.5,0 3.95,3.05 l 0.05,0.95 0,33 -0.05,1 q -0.45,3 -3.95,3 l -32.99998,0 q -3.5,0 -3.9,-3 l -0.1,-1 0,-33 0.1,-0.95 q 0.4,-3.05 3.9,-3.05 l 32.99998,0" />
              <path
                 style="fill:#9b9dad;stroke:none"
                 inkscape:connector-curvature="0"
                 id="path5818"
                 d="m 954.93169,440.92296 -32.99998,0 q -3.5,0 -3.9,3.05 l -0.1,0.95 0,33 0.1,1 q 0.4,3 3.9,3 l 32.99998,0 q 3.5,0 3.95,-3 l 0.05,-1 0,-33 -0.05,-0.95 q -0.45,-3.05 -3.95,-3.05 m 6,4 0,33 0,0.25 q -0.15,5.75 -6,5.75 l -32.99998,0 -0.25,0 -0.15,0 -0.2,0 -0.1,0 -0.1,0 -0.1,0 q -4.7,-0.4 -5.05,-5.15 l -0.05,-0.6 0,-0.25 0,-33 q 0,-6 6,-6 l 32.99998,0 q 6,0 6,6" />
            </g>
            <g
               transform="translate(149.50278,11.883296)"
               id="g5820">
              <path
                 d="m 956.93169,444.27296 -0.05,-0.05 0.05,0.7 0,5.3 -2.4,2.4 2.4,2.4 0,22.9 q 0,1.95 -1.85,2 l -33.24998,0 q -1.9,-0.05 -1.9,-2 l 0,-3.6 2.75,-2.75 -2.75,-2.75 0,-23.9 0.05,-0.5 0.05,-0.2 q 0.25,-1.3 1.9,-1.3 l 32.99998,0 q 1.65,0 2,1.35"
                 id="path5822"
                 inkscape:connector-curvature="0"
                 style="fill:#838796;stroke:none" />
              <path
                 d="m 956.93169,444.27296 q -0.35,-1.35 -2,-1.35 l -32.99998,0 q -1.65,0 -1.9,1.3 l -0.05,0.2 -0.05,0.5 0,23.9 2.75,2.75 -2.75,2.75 0,3.6 q 0,1.95 1.9,2 l 33.24998,0 q 1.85,-0.05 1.85,-2 l 0,-22.9 -2.4,-2.4 2.4,-2.4 0,-5.3 -0.05,-0.7 0.05,0.05 m -2,-3.35 q 3.5,0 3.95,3.05 l 0.05,0.95 0,33 -0.05,1 q -0.45,3 -3.95,3 l -32.99998,0 q -3.5,0 -3.9,-3 l -0.1,-1 0,-33 0.1,-0.95 q 0.4,-3.05 3.9,-3.05 l 32.99998,0"
                 id="path5824"
                 inkscape:connector-curvature="0"
                 style="fill:#727685;stroke:none" />
              <path
                 d="m 954.93169,440.92296 -32.99998,0 q -3.5,0 -3.9,3.05 l -0.1,0.95 0,33 0.1,1 q 0.4,3 3.9,3 l 32.99998,0 q 3.5,0 3.95,-3 l 0.05,-1 0,-33 -0.05,-0.95 q -0.45,-3.05 -3.95,-3.05 m 6,4 0,33 0,0.25 q -0.15,5.75 -6,5.75 l -32.99998,0 -0.25,0 -0.15,0 -0.2,0 -0.1,0 -0.1,0 -0.1,0 q -4.7,-0.4 -5.05,-5.15 l -0.05,-0.6 0,-0.25 0,-33 q 0,-6 6,-6 l 32.99998,0 q 6,0 6,6"
                 id="path5826"
                 inkscape:connector-curvature="0"
                 style="fill:#9b9dad;stroke:none" />
            </g>
            <path
               style="fill:#f0eef2;fill-opacity:1;fill-rule:evenodd;stroke:#f0eef2;stroke-width:1.5;stroke-linecap:butt;stroke-linejoin:miter;stroke-miterlimit:4;stroke-dasharray:none;stroke-opacity:1;marker-start:url(#Arrow1Lstart)"
               d="m 1087.9345,415.58073 0,24.18088"
               id="path5902"
               inkscape:connector-curvature="0" />
            <path
               style="fill:#f0eef2;fill-opacity:1;fill-rule:evenodd;stroke:#f0eef2;stroke-width:1.5;stroke-linecap:butt;stroke-linejoin:miter;stroke-miterlimit:4;stroke-dasharray:none;stroke-opacity:1;marker-start:url(#Arrow1Lstart-6)"
               d="m 1030.2091,473.30626 24.1808,0"
               id="path5902-2"
               inkscape:connector-curvature="0" />
            <path
               style="fill:#f0eef2;fill-opacity:1;fill-rule:evenodd;stroke:#f0eef2;stroke-width:1.5;stroke-linecap:butt;stroke-linejoin:miter;stroke-miterlimit:4;stroke-dasharray:none;stroke-opacity:1;marker-start:url(#Arrow1Lstart-9)"
               d="m 1145.6598,473.30626 -24.1808,0"
               id="path5902-1"
               inkscape:connector-curvature="0" />
            <path
               style="fill:#f0eef2;fill-opacity:1;fill-rule:evenodd;stroke:#f0eef2;stroke-width:1.5;stroke-linecap:butt;stroke-linejoin:miter;stroke-miterlimit:4;stroke-dasharray:none;stroke-opacity:1;marker-start:url(#Arrow1Lstart-94)"
               d="m 1087.9345,484.03168 0,-24.18088"
               id="path5902-8"
               inkscape:connector-curvature="0" />
          </g>
        </g>
        <text
           sodipodi:linespacing="125%"
           id="text7783"
           y="989.39417"
           x="497.77557"
           style="font-style:normal;font-weight:normal;font-size:48.1099205px;line-height:125%;font-family:sans-serif;letter-spacing:0px;word-spacing:0px;fill:#000000;fill-opacity:1;stroke:none;stroke-width:1px;stroke-linecap:butt;stroke-linejoin:miter;stroke-opacity:1"
           xml:space="preserve"><tspan
             style="fill:#444447;fill-opacity:1"
             y="989.39417"
             x="497.77557"
             id="tspan7785"
             sodipodi:role="line">OR</tspan></text>
      </g>
      <g
         transform="matrix(0.74720528,0,0,0.74720528,497.4895,-244.81408)"
         id="g8669">
        <path
           style="fill:#c67700;stroke:none"
           inkscape:connector-curvature="0"
           id="path27786-0"
           d="m 558.28928,1567.62 -31.89664,-6.1136 0,-10.898 31.89664,6.1135 0,10.8981 m -43.59208,72.8306 0,1.5948 q 0,4.5187 -2.92386,7.7084 -3.18966,2.9239 -7.70835,2.9239 l -21.26443,0 q -4.51869,0 -7.44255,-2.9239 -3.18966,-3.1897 -3.18966,-7.7084 l 0,-95.6899 q 0,-4.5187 3.18966,-7.4425 2.92386,-3.1897 7.44255,-3.1897 l 21.26443,0 q 4.51869,0 7.70835,3.1897 2.92386,2.9238 2.92386,7.4425 l 0,1.8607 -10.63221,8.7715 0,-10.6322 -21.26443,0 0,95.6899 21.26443,0 0,-10.3664 10.63221,8.7716 m 43.59208,-8.5058 -31.89664,6.3794 0,-10.8981 31.89664,-6.3793 0,10.898" />
        <path
           style="fill:#ff9900;stroke:none"
           inkscape:connector-curvature="0"
           id="path27788-3"
           d="m 504.06499,1631.679 0,10.3664 -21.26443,0 0,-95.6899 21.26443,0 0,10.6322 0,74.6913 m 22.32765,-4.2529 0,-65.9197 31.89664,6.1136 0,53.4268 -31.89664,6.3793" />
        <path
           style="fill:#bdbdbd;stroke:none"
           inkscape:connector-curvature="0"
           id="path27790-6"
           d="m 514.6972,1548.2162 11.69544,2.3922 0,10.898 -21.26443,-4.2529 -1.06322,-0.2658 10.63221,-8.7715 m 43.59208,8.5057 23.39087,4.5187 -0.53161,0 q 5.58191,0.5316 9.83479,5.5819 3.45547,3.7213 3.45547,10.1006 l 0,34.8205 q 0,5.8478 -3.45547,9.8348 l 0,0.2658 q -4.25288,4.7845 -9.83479,5.5819 l 0.53161,0 -23.39087,4.5187 0,-10.898 21.26442,-4.2529 3.18967,-1.8606 1.06322,-3.1897 0,-34.8205 -1.06322,-3.4554 -3.18967,-1.8607 -21.26442,-3.987 0,-10.8981 m -31.89664,81.6023 -11.69544,2.1264 -10.63221,-8.7716 1.06322,-0.2658 21.26443,-3.9871 0,10.8981" />
        <path
           style="fill:#ffffff;stroke:none"
           inkscape:connector-curvature="0"
           id="path27792-1"
           d="m 504.06499,1556.9877 1.06322,0.2658 21.26443,4.2529 0,65.9197 -21.26443,3.9871 -1.06322,0.2658 0,-74.6913 m 54.22429,10.6323 21.26442,3.987 3.18967,1.8607 1.06322,3.4554 0,34.8205 -1.06322,3.1897 -3.18967,1.8606 -21.26442,4.2529 0,-53.4268" />
      </g>
      <g
         transform="matrix(0.74720528,0,0,0.74720528,-64.053823,-242.62932)"
         id="g8664">
        <path
           style="fill:#c67700;stroke:none"
           inkscape:connector-curvature="0"
           id="path27794"
           d="m 312.68515,1617.8572 q 0,21.2644 21.26443,21.2644 l 53.16107,0 q 7.97416,0 13.02446,-2.9239 8.23996,-5.0503 8.23996,-18.3405 l 0,-53.1611 q 0,-13.2903 -8.23996,-18.0748 -5.0503,-3.1896 -13.02446,-3.1896 l -53.16107,0 q -21.26443,0 -21.26443,21.2644 l 0,53.1611 m -10.63221,-53.1611 q 0,-31.8966 31.89664,-31.8966 l 53.16107,0 q 11.42962,0 18.87217,4.7844 l -0.53161,0 q 13.55607,6.6452 13.55607,27.1122 l 0,53.1611 q 0,20.2012 -13.29026,27.3779 l -0.26581,0.2658 q -7.17674,4.2529 -18.34056,4.2529 l -53.16107,0 q -31.89664,0 -31.89664,-31.8966 l 0,-53.1611" />
        <path
           style="fill:#ff9900;stroke:none"
           inkscape:connector-curvature="0"
           id="path27796"
           d="m 312.68515,1617.8572 0,-53.1611 q 0,-21.2644 21.26443,-21.2644 l 53.16107,0 q 7.97416,0 13.02446,3.1896 8.23996,4.7845 8.23996,18.0748 l 0,53.1611 q 0,13.2902 -8.23996,18.3405 -5.0503,2.9239 -13.02446,2.9239 l -53.16107,0 q -21.26443,0 -21.26443,-21.2644 m 85.05771,-26.5806 q 0,-15.4167 -10.89802,-26.3147 -11.16382,-10.898 -26.31473,-10.898 -15.41671,0 -26.31473,10.898 -10.89801,10.898 -10.89801,26.3147 0,15.4167 10.89801,26.3148 10.89802,10.898 26.31473,10.898 15.15091,0 26.31473,-10.898 10.89802,-10.8981 10.89802,-26.3148 m -37.21275,-18.6063 q 7.70836,0 13.29027,5.5819 5.31611,5.3161 5.31611,13.0244 0,7.7084 -5.31611,13.2903 -5.58191,5.3161 -13.29027,5.3161 -7.70835,0 -13.02446,-5.3161 -5.58191,-5.5819 -5.58191,-13.2903 0,-7.7083 5.58191,-13.0244 5.31611,-5.5819 13.02446,-5.5819" />
        <path
           style="fill:#ffffff;stroke:none"
           inkscape:connector-curvature="0"
           id="path27798"
           d="m 360.53011,1572.6703 q -7.70835,0 -13.02446,5.5819 -5.58191,5.3161 -5.58191,13.0244 0,7.7084 5.58191,13.2903 5.31611,5.3161 13.02446,5.3161 7.70836,0 13.29027,-5.3161 5.31611,-5.5819 5.31611,-13.2903 0,-7.7083 -5.31611,-13.0244 -5.58191,-5.5819 -13.29027,-5.5819 m 37.21275,18.6063 q 0,15.4167 -10.89802,26.3148 -11.16382,10.898 -26.31473,10.898 -15.41671,0 -26.31473,-10.898 -10.89801,-10.8981 -10.89801,-26.3148 0,-15.4167 10.89801,-26.3147 10.89802,-10.898 26.31473,-10.898 15.15091,0 26.31473,10.898 10.89802,10.898 10.89802,26.3147" />
      </g>
    </g>
    <g
       id="g8981"
       inkscape:export-filename="/home/gt/dev/tinycoderu/tinycoderublog/content/pics/phaser3-racing-car-start.png"
       inkscape:export-xdpi="90"
       inkscape:export-ydpi="90"
       transform="translate(-654.57889,-240.41631)">
      <g
         id="g8941">
        <path
           style="fill:#727685;stroke:none"
           inkscape:connector-curvature="0"
           id="path172-6"
           d="m 1317.9076,1633.1038 0.05,0.95 0,63 c 0,2.6667 -1.3333,4 -4,4 l -284,0 c -2.6667,0 -4,-1.3333 -4,-4 l 0,-63 0.1,-0.95 c 0.2667,-2.0333 1.5667,-3.05 3.9,-3.05 l 284,0 c 2.3333,0 3.65,1.0167 3.95,3.05 m -1.95,0.95 -0.05,-0.7 0.05,0.05 c -0.2333,-0.9 -0.9,-1.35 -2,-1.35 l -247.5,0 -2.8,2.8 -2.8,-2.8 -9.35,0 -2.25,2.25 -2.25,-2.25 -17.05,0 c -1.1,0 -1.7333,0.4333 -1.9,1.3 l -0.05,0.2 -0.05,0.5 0,53.9 2.75,2.75 -2.75,2.75 0,3.6 c 0,1.3333 0.6667,2 2,2 l 91.9,0 2.75,-2.75 2.75,2.75 148.55,0 1.55,-1.55 1.55,1.55 34.95,0 c 1.3333,0 2.0504,-0.6676 2,-2 l 0,-52.9 -2.4,-2.4 2.4,-2.4 0,-5.3"
           sodipodi:nodetypes="ccssssccssccccsccccccsccccccssccccccsscccc" />
        <path
           style="fill:#9b9dad;stroke:none"
           inkscape:connector-curvature="0"
           id="path174-1"
           d="m 1317.9076,1633.1038 c -0.3,-2.0333 -1.6167,-3.05 -3.95,-3.05 l -284,0 c -2.3333,0 -3.6333,1.0167 -3.9,3.05 l -0.1,0.95 0,63 c 0,2.6667 1.3333,4 4,4 l 284,0 c 2.6667,0 4,-1.3333 4,-4 l 0,-63 -0.05,-0.95 m -293.95,64.2 0,-63.25 c 0,-4 2,-6 6,-6 l 284,0 c 4,0 6,2 6,6 l 0,63.25 c -0.1,3.8333 -2.1,5.75 -6,5.75 l -284,0 c -3.9,0 -5.9,-1.9167 -6,-5.75"
           sodipodi:nodetypes="cssccsssscccsssscssc" />
        <path
           style="fill:#838796;stroke:none"
           inkscape:connector-curvature="0"
           id="path176-5"
           d="m 1315.9576,1634.0538 0,5.3 -2.4,2.4 2.4,2.4 0,52.9 c 0,1.3333 -0.6667,2 -2,2 l -34.95,0 -1.55,-1.55 -1.55,1.55 -148.55,0 -2.75,-2.75 -2.75,2.75 -91.9,0 c -1.3333,0 -2,-0.6667 -2,-2 l 0,-3.6 2.75,-2.75 -2.75,-2.75 0,-53.9 0.05,-0.5 0.05,-0.2 c 0.1667,-0.8667 0.8,-1.3 1.9,-1.3 l 17.05,0 2.25,2.25 2.25,-2.25 9.35,0 2.8,2.8 2.8,-2.8 247.5,0 c 1.1,0 1.7667,0.45 2,1.35 l -0.05,-0.05 0.05,0.7"
           sodipodi:nodetypes="ccccssccccccssccccccsccccccsccc" />
        <path
           style="fill:#616374;stroke:none"
           inkscape:connector-curvature="0"
           id="path178-5"
           d="m 1319.9576,1697.3038 0,3.75 c 0,4 -2,6 -6,6 l -284,0 c -4,0 -6,-2 -6,-6 l 0,-3.75 c 0.1,3.8333 2.1,5.75 6,5.75 l 284,0 c 3.9,0 5.9,-1.9167 6,-5.75"
           sodipodi:nodetypes="csssscssc" />
      </g>
      <text
         transform="scale(1.0428201,0.95893818)"
         sodipodi:linespacing="125%"
         id="text8275-4"
         y="1748.2827"
         x="1021.2381"
         style="font-style:normal;font-weight:normal;font-size:35.79359436px;line-height:125%;font-family:sans-serif;letter-spacing:0px;word-spacing:0px;fill:#000000;fill-opacity:1;stroke:none;stroke-width:1px;stroke-linecap:butt;stroke-linejoin:miter;stroke-opacity:1"
         xml:space="preserve"><tspan
           style="fill:#eef1f3;fill-opacity:1"
           y="1748.2827"
           x="1021.2381"
           id="tspan8277-7"
           sodipodi:role="line">!</tspan></text>
      <g
         transform="matrix(0,1.445269,-1.4452692,0,3465.2697,-61.681942)"
         id="g8975">
        <path
           style="fill:#9f4910;stroke:none"
           inkscape:connector-curvature="0"
           id="path28186"
           d="m 1192.6552,1506.2917 0.4,-0.05 3.45,-0.15 3.5,0.15 0.35,0.05 0.65,0.1 q 3.3,0.45 4.55,4.5 l -0.05,-0.05 q 0.6,1.8 0.6,4.4 l 0,0.1 -0.1,1.9 -0.1,3.3 q -0.1,4.9 0.05,9.7 l 0.05,1.35 0,0.1 0,0.6 0,0.15 q -0.3,5.45 -6.1,5.6 l -3.4,0.1 -3.35,-0.1 q -5.9,-0.1 -6.15,-5.55 l -0.05,-0.8 0,-0.1 0,-0.15 0.05,-1.05 0,-0.05 0.1,-9.8 -0.15,-3.2 0,-0.05 -0.1,-1.95 0,-0.15 q 0.05,-2.55 0.6,-4.3 l 0,-0.05 q 1.35,-4.2 4.9,-4.5 l 0.25,-0.05 0.05,0 m 7.75,2.05 -0.05,-0.05 -0.35,0 -0.2,-0.05 -3.3,-0.15 -3.3,0.15 -0.2,0.05 -0.35,0 -0.05,0 q -2.35,0.3 -3.25,3.15 -0.45,1.55 -0.5,3.8 l 0.1,1.95 0.15,3.25 -0.1,9.95 -0.05,1.2 0,0.1 0.05,0.6 q 0.2,3.7 4.25,3.75 l 3.25,0.1 3.25,-0.1 q 4,-0.05 4.25,-3.75 l 0,-0.6 0,-0.1 -0.05,-1.2 q -0.15,-4.9 -0.05,-9.95 l 0.1,-3.25 0.1,-1.95 q 0,-2.25 -0.5,-3.8 -0.85,-2.85 -3.2,-3.1" />
        <path
           style="fill:#e86a17;stroke:none"
           inkscape:connector-curvature="0"
           id="path28188"
           d="m 1200.4052,1508.3417 q 1,2.45 3.2,3.1 0.5,1.55 0.5,3.8 l -0.1,1.95 -0.1,3.25 q -0.1,5.05 0.05,9.95 l 0.05,1.2 0,0.1 0,0.6 q -0.25,3.7 -4.25,3.75 l -3.25,0.1 -3.25,-0.1 q -4.05,-0.05 -4.25,-3.75 l -0.05,-0.6 0,-0.1 0.05,-1.2 0.1,-9.95 -0.15,-3.25 -0.1,-1.95 q 0.05,-2.25 0.5,-3.8 2.2,-0.65 3.25,-3.15 l 0.05,0 0.35,0 0.2,-0.05 3.3,-0.15 3.3,0.15 0.2,0.05 0.35,0 0.05,0.05 m 1.8,12.05 0.05,-2.25 0,-0.1 -0.05,-0.05 -0.2,-0.05 -0.05,0 -5.45,-0.75 q -2.7,0 -5.45,0.75 l -0.05,0 -0.2,0.05 -0.05,0.05 0,0.1 0,0.05 0.05,2.2 0.05,2.45 0.3,0.25 5.35,-0.5 5.35,0.5 0.25,-0.25 0.1,-2.45 m -10.35,7.85 -0.55,-0.15 -0.1,2.05 0.05,0 0.3,0.1 1.2,0.35 3.75,0.5 3.75,-0.5 1.15,-0.35 0.35,-0.1 -0.05,-2.05 -0.6,0.15 -4.6,0.5 -4.65,-0.5" />
        <path
           style="fill:#ffffff;stroke:none"
           inkscape:connector-curvature="0"
           id="path28190"
           d="m 1200.4052,1508.3417 q 2.35,0.25 3.2,3.1 -2.2,-0.65 -3.2,-3.1 m -11.05,3.1 q 0.9,-2.85 3.25,-3.15 -1.05,2.5 -3.25,3.15 m 1.45,8.95 -0.05,-2.2 0,-0.05 0,-0.1 0.05,-0.05 0.2,-0.05 0.05,0 q 2.75,-0.75 5.45,-0.75 l 5.45,0.75 0.05,0 0.2,0.05 0.05,0.05 0,0.1 -0.05,2.25 -0.05,0 -0.55,-0.1 -5.1,-0.55 -5.15,0.55 -0.55,0.1" />
        <path
           style="fill:#eeeeee;stroke:none"
           inkscape:connector-curvature="0"
           id="path28192"
           d="m 1190.8052,1520.3917 0.55,-0.1 5.15,-0.55 5.1,0.55 0.55,0.1 0.05,0 -0.1,2.45 -0.25,0.25 -5.35,-0.5 -5.35,0.5 -0.3,-0.25 -0.05,-2.45 m 1.05,7.85 4.65,0.5 4.6,-0.5 0.6,-0.15 0.05,2.05 -0.35,0.1 -1.15,0.35 -3.75,0.5 -3.75,-0.5 -1.2,-0.35 -0.3,-0.1 -0.05,0 0.1,-2.05 0.55,0.15" />
      </g>
    </g>
  </g>
</svg>
